<svg xmlns="http://www.w3.org/2000/svg" width="608" height="348" viewBox="0 0 608 348" role="img" aria-label="03_colormap_gallery terminal output">
<defs><clipPath id="clip"><rect x="0" y="0" width="100%" height="100%" rx="10" ry="10"/></clipPath></defs>
<g clip-path="url(#clip)">
<rect width="100%" height="100%" fill="#111827"/>
<rect width="100%" height="24" fill="#111827"/>
<circle cx="16" cy="12" r="5" fill="#ff5f57"/>
<circle cx="32" cy="12" r="5" fill="#ffbd2e"/>
<circle cx="48" cy="12" r="5" fill="#28c840"/>
<text x="68" y="16" font-family="ui-monospace, SFMono-Regular, Menlo, Consolas, monospace" font-size="11" fill="#9ca3af">03_colormap_gallery</text>
<g shape-rendering="crispEdges">
<rect x="16" y="58" width="8.35" height="8.35" fill="#000000"/>
<rect x="24" y="58" width="8.35" height="8.35" fill="#040404"/>
<rect x="32" y="58" width="8.35" height="8.35" fill="#070707"/>
<rect x="40" y="58" width="8.35" height="8.35" fill="#0b0b0b"/>
<rect x="48" y="58" width="8.35" height="8.35" fill="#0e0e0e"/>
<rect x="56" y="58" width="8.35" height="8.35" fill="#121212"/>
<rect x="64" y="58" width="8.35" height="8.35" fill="#161616"/>
<rect x="72" y="58" width="8.35" height="8.35" fill="#191919"/>
<rect x="80" y="58" width="8.35" height="8.35" fill="#1d1d1d"/>
<rect x="88" y="58" width="8.35" height="8.35" fill="#202020"/>
<rect x="96" y="58" width="8.35" height="8.35" fill="#242424"/>
<rect x="104" y="58" width="8.35" height="8.35" fill="#282828"/>
<rect x="112" y="58" width="8.35" height="8.35" fill="#2b2b2b"/>
<rect x="120" y="58" width="8.35" height="8.35" fill="#2f2f2f"/>
<rect x="128" y="58" width="8.35" height="8.35" fill="#323232"/>
<rect x="136" y="58" width="8.35" height="8.35" fill="#363636"/>
<rect x="144" y="58" width="8.35" height="8.35" fill="#393939"/>
<rect x="152" y="58" width="8.35" height="8.35" fill="#3d3d3d"/>
<rect x="160" y="58" width="8.35" height="8.35" fill="#414141"/>
<rect x="168" y="58" width="8.35" height="8.35" fill="#444444"/>
<rect x="176" y="58" width="8.35" height="8.35" fill="#484848"/>
<rect x="184" y="58" width="8.35" height="8.35" fill="#4b4b4b"/>
<rect x="192" y="58" width="8.35" height="8.35" fill="#4f4f4f"/>
<rect x="200" y="58" width="8.35" height="8.35" fill="#535353"/>
<rect x="208" y="58" width="8.35" height="8.35" fill="#565656"/>
<rect x="216" y="58" width="8.35" height="8.35" fill="#5a5a5a"/>
<rect x="224" y="58" width="8.35" height="8.35" fill="#5d5d5d"/>
<rect x="232" y="58" width="8.35" height="8.35" fill="#616161"/>
<rect x="240" y="58" width="8.35" height="8.35" fill="#656565"/>
<rect x="248" y="58" width="8.35" height="8.35" fill="#686868"/>
<rect x="256" y="58" width="8.35" height="8.35" fill="#6c6c6c"/>
<rect x="264" y="58" width="8.35" height="8.35" fill="#6f6f6f"/>
<rect x="272" y="58" width="8.35" height="8.35" fill="#737373"/>
<rect x="280" y="58" width="8.35" height="8.35" fill="#777777"/>
<rect x="288" y="58" width="8.35" height="8.35" fill="#7a7a7a"/>
<rect x="296" y="58" width="8.35" height="8.35" fill="#7e7e7e"/>
<rect x="304" y="58" width="8.35" height="8.35" fill="#818181"/>
<rect x="312" y="58" width="8.35" height="8.35" fill="#858585"/>
<rect x="320" y="58" width="8.35" height="8.35" fill="#888888"/>
<rect x="328" y="58" width="8.35" height="8.35" fill="#8c8c8c"/>
<rect x="336" y="58" width="8.35" height="8.35" fill="#909090"/>
<rect x="344" y="58" width="8.35" height="8.35" fill="#939393"/>
<rect x="352" y="58" width="8.35" height="8.35" fill="#979797"/>
<rect x="360" y="58" width="8.35" height="8.35" fill="#9a9a9a"/>
<rect x="368" y="58" width="8.35" height="8.35" fill="#9e9e9e"/>
<rect x="376" y="58" width="8.35" height="8.35" fill="#a2a2a2"/>
<rect x="384" y="58" width="8.35" height="8.35" fill="#a5a5a5"/>
<rect x="392" y="58" width="8.35" height="8.35" fill="#a9a9a9"/>
<rect x="400" y="58" width="8.35" height="8.35" fill="#acacac"/>
<rect x="408" y="58" width="8.35" height="8.35" fill="#b0b0b0"/>
<rect x="416" y="58" width="8.35" height="8.35" fill="#b4b4b4"/>
<rect x="424" y="58" width="8.35" height="8.35" fill="#b7b7b7"/>
<rect x="432" y="58" width="8.35" height="8.35" fill="#bbbbbb"/>
<rect x="440" y="58" width="8.35" height="8.35" fill="#bebebe"/>
<rect x="448" y="58" width="8.35" height="8.35" fill="#c2c2c2"/>
<rect x="456" y="58" width="8.35" height="8.35" fill="#c6c6c6"/>
<rect x="464" y="58" width="8.35" height="8.35" fill="#c9c9c9"/>
<rect x="472" y="58" width="8.35" height="8.35" fill="#cdcdcd"/>
<rect x="480" y="58" width="8.35" height="8.35" fill="#d0d0d0"/>
<rect x="488" y="58" width="8.35" height="8.35" fill="#d4d4d4"/>
<rect x="496" y="58" width="8.35" height="8.35" fill="#d7d7d7"/>
<rect x="504" y="58" width="8.35" height="8.35" fill="#dbdbdb"/>
<rect x="512" y="58" width="8.35" height="8.35" fill="#dfdfdf"/>
<rect x="520" y="58" width="8.35" height="8.35" fill="#e2e2e2"/>
<rect x="528" y="58" width="8.35" height="8.35" fill="#e6e6e6"/>
<rect x="536" y="58" width="8.35" height="8.35" fill="#e9e9e9"/>
<rect x="544" y="58" width="8.35" height="8.35" fill="#ededed"/>
<rect x="552" y="58" width="8.35" height="8.35" fill="#f1f1f1"/>
<rect x="560" y="58" width="8.35" height="8.35" fill="#f4f4f4"/>
<rect x="568" y="58" width="8.35" height="8.35" fill="#f8f8f8"/>
<rect x="576" y="58" width="8.35" height="8.35" fill="#fbfbfb"/>
<rect x="584" y="58" width="8.35" height="8.35" fill="#ffffff"/>
<rect x="16" y="90" width="8.35" height="8.35" fill="#440154"/>
<rect x="24" y="90" width="8.35" height="8.35" fill="#46075a"/>
<rect x="32" y="90" width="8.35" height="8.35" fill="#460b5e"/>
<rect x="40" y="90" width="8.35" height="8.35" fill="#471164"/>
<rect x="48" y="90" width="8.35" height="8.35" fill="#481668"/>
<rect x="56" y="90" width="8.35" height="8.35" fill="#481b6d"/>
<rect x="64" y="90" width="8.35" height="8.35" fill="#482071"/>
<rect x="72" y="90" width="8.35" height="8.35" fill="#482475"/>
<rect x="80" y="90" width="8.35" height="8.35" fill="#482979"/>
<rect x="88" y="90" width="8.35" height="8.35" fill="#472d7b"/>
<rect x="96" y="90" width="8.35" height="8.35" fill="#46327e"/>
<rect x="104" y="90" width="8.35" height="8.35" fill="#453781"/>
<rect x="112" y="90" width="8.35" height="8.35" fill="#443a83"/>
<rect x="120" y="90" width="8.35" height="8.35" fill="#423f85"/>
<rect x="128" y="90" width="8.35" height="8.35" fill="#414287"/>
<rect x="136" y="90" width="8.35" height="8.35" fill="#3f4788"/>
<rect x="144" y="90" width="8.35" height="8.35" fill="#3e4a89"/>
<rect x="152" y="90" width="8.35" height="8.35" fill="#3c4f8a"/>
<rect x="160" y="90" width="8.35" height="8.35" fill="#3a538b"/>
<rect x="168" y="90" width="8.35" height="8.35" fill="#39568c"/>
<rect x="176" y="90" width="8.35" height="8.35" fill="#375b8d"/>
<rect x="184" y="90" width="8.35" height="8.35" fill="#355e8d"/>
<rect x="192" y="90" width="8.35" height="8.35" fill="#33628d"/>
<rect x="200" y="90" width="8.35" height="8.35" fill="#31668e"/>
<rect x="208" y="90" width="8.35" height="8.35" fill="#30698e"/>
<rect x="216" y="90" width="8.35" height="8.35" fill="#2e6d8e"/>
<rect x="224" y="90" width="8.35" height="8.35" fill="#2d708e"/>
<rect x="232" y="90" width="8.35" height="8.35" fill="#2c738e"/>
<rect x="240" y="90" width="8.35" height="8.35" fill="#2a778e"/>
<rect x="248" y="90" width="8.35" height="8.35" fill="#297a8e"/>
<rect x="256" y="90" width="8.35" height="8.35" fill="#277e8e"/>
<rect x="264" y="90" width="8.35" height="8.35" fill="#26818e"/>
<rect x="272" y="90" width="8.35" height="8.35" fill="#25848e"/>
<rect x="280" y="90" width="8.35" height="8.35" fill="#23888e"/>
<rect x="288" y="90" width="8.35" height="8.35" fill="#228b8d"/>
<rect x="296" y="90" width="8.35" height="8.35" fill="#218f8d"/>
<rect x="304" y="90" width="8.35" height="8.35" fill="#20928c"/>
<rect x="312" y="90" width="8.35" height="8.35" fill="#1f958b"/>
<rect x="320" y="90" width="8.35" height="8.35" fill="#1f988b"/>
<rect x="328" y="90" width="8.35" height="8.35" fill="#1e9c89"/>
<rect x="336" y="90" width="8.35" height="8.35" fill="#1fa088"/>
<rect x="344" y="90" width="8.35" height="8.35" fill="#1fa287"/>
<rect x="352" y="90" width="8.35" height="8.35" fill="#21a685"/>
<rect x="360" y="90" width="8.35" height="8.35" fill="#23a983"/>
<rect x="368" y="90" width="8.35" height="8.35" fill="#26ad81"/>
<rect x="376" y="90" width="8.35" height="8.35" fill="#2ab07f"/>
<rect x="384" y="90" width="8.35" height="8.35" fill="#2eb37c"/>
<rect x="392" y="90" width="8.35" height="8.35" fill="#34b679"/>
<rect x="400" y="90" width="8.35" height="8.35" fill="#38b977"/>
<rect x="408" y="90" width="8.35" height="8.35" fill="#3fbc73"/>
<rect x="416" y="90" width="8.35" height="8.35" fill="#46c06f"/>
<rect x="424" y="90" width="8.35" height="8.35" fill="#4cc26c"/>
<rect x="432" y="90" width="8.35" height="8.35" fill="#54c568"/>
<rect x="440" y="90" width="8.35" height="8.35" fill="#5ac864"/>
<rect x="448" y="90" width="8.35" height="8.35" fill="#63cb5f"/>
<rect x="456" y="90" width="8.35" height="8.35" fill="#6ccd5a"/>
<rect x="464" y="90" width="8.35" height="8.35" fill="#73d056"/>
<rect x="472" y="90" width="8.35" height="8.35" fill="#7cd250"/>
<rect x="480" y="90" width="8.35" height="8.35" fill="#84d44b"/>
<rect x="488" y="90" width="8.35" height="8.35" fill="#8ed645"/>
<rect x="496" y="90" width="8.35" height="8.35" fill="#95d840"/>
<rect x="504" y="90" width="8.35" height="8.35" fill="#a0da39"/>
<rect x="512" y="90" width="8.35" height="8.35" fill="#aadc32"/>
<rect x="520" y="90" width="8.35" height="8.35" fill="#b2dd2d"/>
<rect x="528" y="90" width="8.35" height="8.35" fill="#bddf26"/>
<rect x="536" y="90" width="8.35" height="8.35" fill="#c5e021"/>
<rect x="544" y="90" width="8.35" height="8.35" fill="#d0e11c"/>
<rect x="552" y="90" width="8.35" height="8.35" fill="#dae319"/>
<rect x="560" y="90" width="8.35" height="8.35" fill="#e2e418"/>
<rect x="568" y="90" width="8.35" height="8.35" fill="#ece51b"/>
<rect x="576" y="90" width="8.35" height="8.35" fill="#f4e61e"/>
<rect x="584" y="90" width="8.35" height="8.35" fill="#fde725"/>
<rect x="16" y="122" width="8.35" height="8.35" fill="#0d0887"/>
<rect x="24" y="122" width="8.35" height="8.35" fill="#19068c"/>
<rect x="32" y="122" width="8.35" height="8.35" fill="#20068f"/>
<rect x="40" y="122" width="8.35" height="8.35" fill="#280592"/>
<rect x="48" y="122" width="8.35" height="8.35" fill="#2e0595"/>
<rect x="56" y="122" width="8.35" height="8.35" fill="#350498"/>
<rect x="64" y="122" width="8.35" height="8.35" fill="#3c049b"/>
<rect x="72" y="122" width="8.35" height="8.35" fill="#41049d"/>
<rect x="80" y="122" width="8.35" height="8.35" fill="#48039f"/>
<rect x="88" y="122" width="8.35" height="8.35" fill="#4c02a1"/>
<rect x="96" y="122" width="8.35" height="8.35" fill="#5302a3"/>
<rect x="104" y="122" width="8.35" height="8.35" fill="#5901a5"/>
<rect x="112" y="122" width="8.35" height="8.35" fill="#5e01a6"/>
<rect x="120" y="122" width="8.35" height="8.35" fill="#6400a7"/>
<rect x="128" y="122" width="8.35" height="8.35" fill="#6900a8"/>
<rect x="136" y="122" width="8.35" height="8.35" fill="#6f00a8"/>
<rect x="144" y="122" width="8.35" height="8.35" fill="#7401a8"/>
<rect x="152" y="122" width="8.35" height="8.35" fill="#7a02a8"/>
<rect x="160" y="122" width="8.35" height="8.35" fill="#8004a8"/>
<rect x="168" y="122" width="8.35" height="8.35" fill="#8405a7"/>
<rect x="176" y="122" width="8.35" height="8.35" fill="#8a09a5"/>
<rect x="184" y="122" width="8.35" height="8.35" fill="#8e0ca4"/>
<rect x="192" y="122" width="8.35" height="8.35" fill="#9410a2"/>
<rect x="200" y="122" width="8.35" height="8.35" fill="#99159f"/>
<rect x="208" y="122" width="8.35" height="8.35" fill="#9d189d"/>
<rect x="216" y="122" width="8.35" height="8.35" fill="#a21d9a"/>
<rect x="224" y="122" width="8.35" height="8.35" fill="#a62098"/>
<rect x="232" y="122" width="8.35" height="8.35" fill="#ab2494"/>
<rect x="240" y="122" width="8.35" height="8.35" fill="#b02991"/>
<rect x="248" y="122" width="8.35" height="8.35" fill="#b32c8e"/>
<rect x="256" y="122" width="8.35" height="8.35" fill="#b7318a"/>
<rect x="264" y="122" width="8.35" height="8.35" fill="#bb3488"/>
<rect x="272" y="122" width="8.35" height="8.35" fill="#bf3984"/>
<rect x="280" y="122" width="8.35" height="8.35" fill="#c33d80"/>
<rect x="288" y="122" width="8.35" height="8.35" fill="#c6417d"/>
<rect x="296" y="122" width="8.35" height="8.35" fill="#ca457a"/>
<rect x="304" y="122" width="8.35" height="8.35" fill="#cc4977"/>
<rect x="312" y="122" width="8.35" height="8.35" fill="#d04d73"/>
<rect x="320" y="122" width="8.35" height="8.35" fill="#d35171"/>
<rect x="328" y="122" width="8.35" height="8.35" fill="#d6556d"/>
<rect x="336" y="122" width="8.35" height="8.35" fill="#da5a6a"/>
<rect x="344" y="122" width="8.35" height="8.35" fill="#dc5d67"/>
<rect x="352" y="122" width="8.35" height="8.35" fill="#df6263"/>
<rect x="360" y="122" width="8.35" height="8.35" fill="#e26561"/>
<rect x="368" y="122" width="8.35" height="8.35" fill="#e56a5d"/>
<rect x="376" y="122" width="8.35" height="8.35" fill="#e76f5a"/>
<rect x="384" y="122" width="8.35" height="8.35" fill="#e97257"/>
<rect x="392" y="122" width="8.35" height="8.35" fill="#ec7754"/>
<rect x="400" y="122" width="8.35" height="8.35" fill="#ee7b51"/>
<rect x="408" y="122" width="8.35" height="8.35" fill="#f0804e"/>
<rect x="416" y="122" width="8.35" height="8.35" fill="#f3854b"/>
<rect x="424" y="122" width="8.35" height="8.35" fill="#f48948"/>
<rect x="432" y="122" width="8.35" height="8.35" fill="#f68f44"/>
<rect x="440" y="122" width="8.35" height="8.35" fill="#f79342"/>
<rect x="448" y="122" width="8.35" height="8.35" fill="#f9983e"/>
<rect x="456" y="122" width="8.35" height="8.35" fill="#fa9e3b"/>
<rect x="464" y="122" width="8.35" height="8.35" fill="#fba238"/>
<rect x="472" y="122" width="8.35" height="8.35" fill="#fca835"/>
<rect x="480" y="122" width="8.35" height="8.35" fill="#fdac33"/>
<rect x="488" y="122" width="8.35" height="8.35" fill="#fdb22f"/>
<rect x="496" y="122" width="8.35" height="8.35" fill="#feb72d"/>
<rect x="504" y="122" width="8.35" height="8.35" fill="#febd2a"/>
<rect x="512" y="122" width="8.35" height="8.35" fill="#fdc328"/>
<rect x="520" y="122" width="8.35" height="8.35" fill="#fdc827"/>
<rect x="528" y="122" width="8.35" height="8.35" fill="#fcce25"/>
<rect x="536" y="122" width="8.35" height="8.35" fill="#fbd324"/>
<rect x="544" y="122" width="8.35" height="8.35" fill="#fada24"/>
<rect x="552" y="122" width="8.35" height="8.35" fill="#f8e125"/>
<rect x="560" y="122" width="8.35" height="8.35" fill="#f6e626"/>
<rect x="568" y="122" width="8.35" height="8.35" fill="#f4ed27"/>
<rect x="576" y="122" width="8.35" height="8.35" fill="#f2f227"/>
<rect x="584" y="122" width="8.35" height="8.35" fill="#f0f921"/>
<rect x="16" y="154" width="8.35" height="8.35" fill="#000004"/>
<rect x="24" y="154" width="8.35" height="8.35" fill="#02010a"/>
<rect x="32" y="154" width="8.35" height="8.35" fill="#030210"/>
<rect x="40" y="154" width="8.35" height="8.35" fill="#060419"/>
<rect x="48" y="154" width="8.35" height="8.35" fill="#09061f"/>
<rect x="56" y="154" width="8.35" height="8.35" fill="#0d0829"/>
<rect x="64" y="154" width="8.35" height="8.35" fill="#120a32"/>
<rect x="72" y="154" width="8.35" height="8.35" fill="#160b39"/>
<rect x="80" y="154" width="8.35" height="8.35" fill="#1c0c43"/>
<rect x="88" y="154" width="8.35" height="8.35" fill="#210c4a"/>
<rect x="96" y="154" width="8.35" height="8.35" fill="#280b53"/>
<rect x="104" y="154" width="8.35" height="8.35" fill="#2f0a5b"/>
<rect x="112" y="154" width="8.35" height="8.35" fill="#340a5f"/>
<rect x="120" y="154" width="8.35" height="8.35" fill="#3b0964"/>
<rect x="128" y="154" width="8.35" height="8.35" fill="#400a67"/>
<rect x="136" y="154" width="8.35" height="8.35" fill="#470b6a"/>
<rect x="144" y="154" width="8.35" height="8.35" fill="#4c0c6b"/>
<rect x="152" y="154" width="8.35" height="8.35" fill="#520e6d"/>
<rect x="160" y="154" width="8.35" height="8.35" fill="#59106e"/>
<rect x="168" y="154" width="8.35" height="8.35" fill="#5d126e"/>
<rect x="176" y="154" width="8.35" height="8.35" fill="#64156e"/>
<rect x="184" y="154" width="8.35" height="8.35" fill="#69166e"/>
<rect x="192" y="154" width="8.35" height="8.35" fill="#6f196e"/>
<rect x="200" y="154" width="8.35" height="8.35" fill="#751b6e"/>
<rect x="208" y="154" width="8.35" height="8.35" fill="#7a1d6d"/>
<rect x="216" y="154" width="8.35" height="8.35" fill="#801f6c"/>
<rect x="224" y="154" width="8.35" height="8.35" fill="#85216b"/>
<rect x="232" y="154" width="8.35" height="8.35" fill="#8c2369"/>
<rect x="240" y="154" width="8.35" height="8.35" fill="#922568"/>
<rect x="248" y="154" width="8.35" height="8.35" fill="#972766"/>
<rect x="256" y="154" width="8.35" height="8.35" fill="#9d2964"/>
<rect x="264" y="154" width="8.35" height="8.35" fill="#a22b62"/>
<rect x="272" y="154" width="8.35" height="8.35" fill="#a82e5f"/>
<rect x="280" y="154" width="8.35" height="8.35" fill="#ae305c"/>
<rect x="288" y="154" width="8.35" height="8.35" fill="#b3325a"/>
<rect x="296" y="154" width="8.35" height="8.35" fill="#b93556"/>
<rect x="304" y="154" width="8.35" height="8.35" fill="#bd3853"/>
<rect x="312" y="154" width="8.35" height="8.35" fill="#c33b4f"/>
<rect x="320" y="154" width="8.35" height="8.35" fill="#c73e4c"/>
<rect x="328" y="154" width="8.35" height="8.35" fill="#cc4248"/>
<rect x="336" y="154" width="8.35" height="8.35" fill="#d24644"/>
<rect x="344" y="154" width="8.35" height="8.35" fill="#d54a41"/>
<rect x="352" y="154" width="8.35" height="8.35" fill="#da4e3c"/>
<rect x="360" y="154" width="8.35" height="8.35" fill="#de5238"/>
<rect x="368" y="154" width="8.35" height="8.35" fill="#e25734"/>
<rect x="376" y="154" width="8.35" height="8.35" fill="#e65d2f"/>
<rect x="384" y="154" width="8.35" height="8.35" fill="#e9612b"/>
<rect x="392" y="154" width="8.35" height="8.35" fill="#ec6726"/>
<rect x="400" y="154" width="8.35" height="8.35" fill="#ef6c23"/>
<rect x="408" y="154" width="8.35" height="8.35" fill="#f1731d"/>
<rect x="416" y="154" width="8.35" height="8.35" fill="#f47918"/>
<rect x="424" y="154" width="8.35" height="8.35" fill="#f67e14"/>
<rect x="432" y="154" width="8.35" height="8.35" fill="#f8850f"/>
<rect x="440" y="154" width="8.35" height="8.35" fill="#f98b0b"/>
<rect x="448" y="154" width="8.35" height="8.35" fill="#fa9207"/>
<rect x="456" y="154" width="8.35" height="8.35" fill="#fb9906"/>
<rect x="464" y="154" width="8.35" height="8.35" fill="#fc9f07"/>
<rect x="472" y="154" width="8.35" height="8.35" fill="#fca60c"/>
<rect x="480" y="154" width="8.35" height="8.35" fill="#fcac11"/>
<rect x="488" y="154" width="8.35" height="8.35" fill="#fcb418"/>
<rect x="496" y="154" width="8.35" height="8.35" fill="#fbba1f"/>
<rect x="504" y="154" width="8.35" height="8.35" fill="#fac228"/>
<rect x="512" y="154" width="8.35" height="8.35" fill="#f9c932"/>
<rect x="520" y="154" width="8.35" height="8.35" fill="#f8cf3a"/>
<rect x="528" y="154" width="8.35" height="8.35" fill="#f6d746"/>
<rect x="536" y="154" width="8.35" height="8.35" fill="#f4dd4f"/>
<rect x="544" y="154" width="8.35" height="8.35" fill="#f3e55d"/>
<rect x="552" y="154" width="8.35" height="8.35" fill="#f1ec6d"/>
<rect x="560" y="154" width="8.35" height="8.35" fill="#f1f179"/>
<rect x="568" y="154" width="8.35" height="8.35" fill="#f3f68a"/>
<rect x="576" y="154" width="8.35" height="8.35" fill="#f6fa96"/>
<rect x="584" y="154" width="8.35" height="8.35" fill="#fcffa4"/>
<rect x="16" y="186" width="8.35" height="8.35" fill="#000004"/>
<rect x="24" y="186" width="8.35" height="8.35" fill="#020109"/>
<rect x="32" y="186" width="8.35" height="8.35" fill="#03030f"/>
<rect x="40" y="186" width="8.35" height="8.35" fill="#060518"/>
<rect x="48" y="186" width="8.35" height="8.35" fill="#08071e"/>
<rect x="56" y="186" width="8.35" height="8.35" fill="#0c0926"/>
<rect x="64" y="186" width="8.35" height="8.35" fill="#110c2f"/>
<rect x="72" y="186" width="8.35" height="8.35" fill="#140e36"/>
<rect x="80" y="186" width="8.35" height="8.35" fill="#19103f"/>
<rect x="88" y="186" width="8.35" height="8.35" fill="#1d1147"/>
<rect x="96" y="186" width="8.35" height="8.35" fill="#221150"/>
<rect x="104" y="186" width="8.35" height="8.35" fill="#29115a"/>
<rect x="112" y="186" width="8.35" height="8.35" fill="#2d1161"/>
<rect x="120" y="186" width="8.35" height="8.35" fill="#341069"/>
<rect x="128" y="186" width="8.35" height="8.35" fill="#390f6e"/>
<rect x="136" y="186" width="8.35" height="8.35" fill="#400f74"/>
<rect x="144" y="186" width="8.35" height="8.35" fill="#451077"/>
<rect x="152" y="186" width="8.35" height="8.35" fill="#4c117a"/>
<rect x="160" y="186" width="8.35" height="8.35" fill="#52137c"/>
<rect x="168" y="186" width="8.35" height="8.35" fill="#57157e"/>
<rect x="176" y="186" width="8.35" height="8.35" fill="#5d177f"/>
<rect x="184" y="186" width="8.35" height="8.35" fill="#621980"/>
<rect x="192" y="186" width="8.35" height="8.35" fill="#681c81"/>
<rect x="200" y="186" width="8.35" height="8.35" fill="#6e1e81"/>
<rect x="208" y="186" width="8.35" height="8.35" fill="#732081"/>
<rect x="216" y="186" width="8.35" height="8.35" fill="#792282"/>
<rect x="224" y="186" width="8.35" height="8.35" fill="#7e2482"/>
<rect x="232" y="186" width="8.35" height="8.35" fill="#842681"/>
<rect x="240" y="186" width="8.35" height="8.35" fill="#8b2981"/>
<rect x="248" y="186" width="8.35" height="8.35" fill="#902a81"/>
<rect x="256" y="186" width="8.35" height="8.35" fill="#962c80"/>
<rect x="264" y="186" width="8.35" height="8.35" fill="#9b2e7f"/>
<rect x="272" y="186" width="8.35" height="8.35" fill="#a1307e"/>
<rect x="280" y="186" width="8.35" height="8.35" fill="#a8327d"/>
<rect x="288" y="186" width="8.35" height="8.35" fill="#ad347c"/>
<rect x="296" y="186" width="8.35" height="8.35" fill="#b3367a"/>
<rect x="304" y="186" width="8.35" height="8.35" fill="#b83779"/>
<rect x="312" y="186" width="8.35" height="8.35" fill="#bf3a77"/>
<rect x="320" y="186" width="8.35" height="8.35" fill="#c43c75"/>
<rect x="328" y="186" width="8.35" height="8.35" fill="#ca3e72"/>
<rect x="336" y="186" width="8.35" height="8.35" fill="#d0416f"/>
<rect x="344" y="186" width="8.35" height="8.35" fill="#d5446d"/>
<rect x="352" y="186" width="8.35" height="8.35" fill="#db476a"/>
<rect x="360" y="186" width="8.35" height="8.35" fill="#df4a68"/>
<rect x="368" y="186" width="8.35" height="8.35" fill="#e44f64"/>
<rect x="376" y="186" width="8.35" height="8.35" fill="#e95462"/>
<rect x="384" y="186" width="8.35" height="8.35" fill="#ec5860"/>
<rect x="392" y="186" width="8.35" height="8.35" fill="#f05f5e"/>
<rect x="400" y="186" width="8.35" height="8.35" fill="#f2645c"/>
<rect x="408" y="186" width="8.35" height="8.35" fill="#f56b5c"/>
<rect x="416" y="186" width="8.35" height="8.35" fill="#f7725c"/>
<rect x="424" y="186" width="8.35" height="8.35" fill="#f9785d"/>
<rect x="432" y="186" width="8.35" height="8.35" fill="#fa7f5e"/>
<rect x="440" y="186" width="8.35" height="8.35" fill="#fb8560"/>
<rect x="448" y="186" width="8.35" height="8.35" fill="#fc8c63"/>
<rect x="456" y="186" width="8.35" height="8.35" fill="#fd9467"/>
<rect x="464" y="186" width="8.35" height="8.35" fill="#fd9a6a"/>
<rect x="472" y="186" width="8.35" height="8.35" fill="#fea16e"/>
<rect x="480" y="186" width="8.35" height="8.35" fill="#fea772"/>
<rect x="488" y="186" width="8.35" height="8.35" fill="#feae77"/>
<rect x="496" y="186" width="8.35" height="8.35" fill="#feb47b"/>
<rect x="504" y="186" width="8.35" height="8.35" fill="#febb81"/>
<rect x="512" y="186" width="8.35" height="8.35" fill="#fec287"/>
<rect x="520" y="186" width="8.35" height="8.35" fill="#fec88c"/>
<rect x="528" y="186" width="8.35" height="8.35" fill="#fecf92"/>
<rect x="536" y="186" width="8.35" height="8.35" fill="#fed597"/>
<rect x="544" y="186" width="8.35" height="8.35" fill="#fddc9e"/>
<rect x="552" y="186" width="8.35" height="8.35" fill="#fde3a5"/>
<rect x="560" y="186" width="8.35" height="8.35" fill="#fde9aa"/>
<rect x="568" y="186" width="8.35" height="8.35" fill="#fcf0b2"/>
<rect x="576" y="186" width="8.35" height="8.35" fill="#fcf6b8"/>
<rect x="584" y="186" width="8.35" height="8.35" fill="#fcfdbf"/>
<rect x="16" y="218" width="8.35" height="8.35" fill="#00224e"/>
<rect x="24" y="218" width="8.35" height="8.35" fill="#002554"/>
<rect x="32" y="218" width="8.35" height="8.35" fill="#002859"/>
<rect x="40" y="218" width="8.35" height="8.35" fill="#002a61"/>
<rect x="48" y="218" width="8.35" height="8.35" fill="#002c66"/>
<rect x="56" y="218" width="8.35" height="8.35" fill="#002f6d"/>
<rect x="64" y="218" width="8.35" height="8.35" fill="#003171"/>
<rect x="72" y="218" width="8.35" height="8.35" fill="#083370"/>
<rect x="80" y="218" width="8.35" height="8.35" fill="#143670"/>
<rect x="88" y="218" width="8.35" height="8.35" fill="#1a386f"/>
<rect x="96" y="218" width="8.35" height="8.35" fill="#213b6e"/>
<rect x="104" y="218" width="8.35" height="8.35" fill="#273e6e"/>
<rect x="112" y="218" width="8.35" height="8.35" fill="#2b406d"/>
<rect x="120" y="218" width="8.35" height="8.35" fill="#31436d"/>
<rect x="128" y="218" width="8.35" height="8.35" fill="#34456c"/>
<rect x="136" y="218" width="8.35" height="8.35" fill="#39486c"/>
<rect x="144" y="218" width="8.35" height="8.35" fill="#3c4a6c"/>
<rect x="152" y="218" width="8.35" height="8.35" fill="#404c6c"/>
<rect x="160" y="218" width="8.35" height="8.35" fill="#444f6c"/>
<rect x="168" y="218" width="8.35" height="8.35" fill="#47516c"/>
<rect x="176" y="218" width="8.35" height="8.35" fill="#4b546c"/>
<rect x="184" y="218" width="8.35" height="8.35" fill="#4e566c"/>
<rect x="192" y="218" width="8.35" height="8.35" fill="#52596d"/>
<rect x="200" y="218" width="8.35" height="8.35" fill="#555c6d"/>
<rect x="208" y="218" width="8.35" height="8.35" fill="#585e6d"/>
<rect x="216" y="218" width="8.35" height="8.35" fill="#5c616e"/>
<rect x="224" y="218" width="8.35" height="8.35" fill="#5e636f"/>
<rect x="232" y="218" width="8.35" height="8.35" fill="#62656f"/>
<rect x="240" y="218" width="8.35" height="8.35" fill="#656870"/>
<rect x="248" y="218" width="8.35" height="8.35" fill="#686a71"/>
<rect x="256" y="218" width="8.35" height="8.35" fill="#6c6d72"/>
<rect x="264" y="218" width="8.35" height="8.35" fill="#6e6f73"/>
<rect x="272" y="218" width="8.35" height="8.35" fill="#727274"/>
<rect x="280" y="218" width="8.35" height="8.35" fill="#757575"/>
<rect x="288" y="218" width="8.35" height="8.35" fill="#777777"/>
<rect x="296" y="218" width="8.35" height="8.35" fill="#7b7a78"/>
<rect x="304" y="218" width="8.35" height="8.35" fill="#7e7c78"/>
<rect x="312" y="218" width="8.35" height="8.35" fill="#817f78"/>
<rect x="320" y="218" width="8.35" height="8.35" fill="#848279"/>
<rect x="328" y="218" width="8.35" height="8.35" fill="#888578"/>
<rect x="336" y="218" width="8.35" height="8.35" fill="#8c8878"/>
<rect x="344" y="218" width="8.35" height="8.35" fill="#8f8a78"/>
<rect x="352" y="218" width="8.35" height="8.35" fill="#928d78"/>
<rect x="360" y="218" width="8.35" height="8.35" fill="#958f77"/>
<rect x="368" y="218" width="8.35" height="8.35" fill="#999277"/>
<rect x="376" y="218" width="8.35" height="8.35" fill="#9d9576"/>
<rect x="384" y="218" width="8.35" height="8.35" fill="#a09875"/>
<rect x="392" y="218" width="8.35" height="8.35" fill="#a49b74"/>
<rect x="400" y="218" width="8.35" height="8.35" fill="#a79d73"/>
<rect x="408" y="218" width="8.35" height="8.35" fill="#aba072"/>
<rect x="416" y="218" width="8.35" height="8.35" fill="#afa471"/>
<rect x="424" y="218" width="8.35" height="8.35" fill="#b3a670"/>
<rect x="432" y="218" width="8.35" height="8.35" fill="#b7a96e"/>
<rect x="440" y="218" width="8.35" height="8.35" fill="#baac6d"/>
<rect x="448" y="218" width="8.35" height="8.35" fill="#beaf6b"/>
<rect x="456" y="218" width="8.35" height="8.35" fill="#c2b369"/>
<rect x="464" y="218" width="8.35" height="8.35" fill="#c5b568"/>
<rect x="472" y="218" width="8.35" height="8.35" fill="#c9b965"/>
<rect x="480" y="218" width="8.35" height="8.35" fill="#cdbb63"/>
<rect x="488" y="218" width="8.35" height="8.35" fill="#d1bf61"/>
<rect x="496" y="218" width="8.35" height="8.35" fill="#d4c15f"/>
<rect x="504" y="218" width="8.35" height="8.35" fill="#d9c55c"/>
<rect x="512" y="218" width="8.35" height="8.35" fill="#ddc858"/>
<rect x="520" y="218" width="8.35" height="8.35" fill="#e0cb56"/>
<rect x="528" y="218" width="8.35" height="8.35" fill="#e5cf52"/>
<rect x="536" y="218" width="8.35" height="8.35" fill="#e8d24f"/>
<rect x="544" y="218" width="8.35" height="8.35" fill="#edd54a"/>
<rect x="552" y="218" width="8.35" height="8.35" fill="#f1d945"/>
<rect x="560" y="218" width="8.35" height="8.35" fill="#f5dc41"/>
<rect x="568" y="218" width="8.35" height="8.35" fill="#f9e03a"/>
<rect x="576" y="218" width="8.35" height="8.35" fill="#fde334"/>
<rect x="584" y="218" width="8.35" height="8.35" fill="#fee838"/>
<rect x="16" y="250" width="8.35" height="8.35" fill="#3b4cc0"/>
<rect x="24" y="250" width="8.35" height="8.35" fill="#3f53c6"/>
<rect x="32" y="250" width="8.35" height="8.35" fill="#4358cb"/>
<rect x="40" y="250" width="8.35" height="8.35" fill="#485fd1"/>
<rect x="48" y="250" width="8.35" height="8.35" fill="#4b64d5"/>
<rect x="56" y="250" width="8.35" height="8.35" fill="#506bda"/>
<rect x="64" y="250" width="8.35" height="8.35" fill="#5572df"/>
<rect x="72" y="250" width="8.35" height="8.35" fill="#5977e3"/>
<rect x="80" y="250" width="8.35" height="8.35" fill="#5e7de7"/>
<rect x="88" y="250" width="8.35" height="8.35" fill="#6282ea"/>
<rect x="96" y="250" width="8.35" height="8.35" fill="#6788ee"/>
<rect x="104" y="250" width="8.35" height="8.35" fill="#6c8ff1"/>
<rect x="112" y="250" width="8.35" height="8.35" fill="#7093f3"/>
<rect x="120" y="250" width="8.35" height="8.35" fill="#7699f6"/>
<rect x="128" y="250" width="8.35" height="8.35" fill="#7a9df8"/>
<rect x="136" y="250" width="8.35" height="8.35" fill="#80a3fa"/>
<rect x="144" y="250" width="8.35" height="8.35" fill="#84a7fc"/>
<rect x="152" y="250" width="8.35" height="8.35" fill="#89acfd"/>
<rect x="160" y="250" width="8.35" height="8.35" fill="#8fb1fe"/>
<rect x="168" y="250" width="8.35" height="8.35" fill="#93b5fe"/>
<rect x="176" y="250" width="8.35" height="8.35" fill="#98b9ff"/>
<rect x="184" y="250" width="8.35" height="8.35" fill="#9dbdff"/>
<rect x="192" y="250" width="8.35" height="8.35" fill="#a2c1ff"/>
<rect x="200" y="250" width="8.35" height="8.35" fill="#a7c5fe"/>
<rect x="208" y="250" width="8.35" height="8.35" fill="#abc8fd"/>
<rect x="216" y="250" width="8.35" height="8.35" fill="#b1cbfc"/>
<rect x="224" y="250" width="8.35" height="8.35" fill="#b5cdfa"/>
<rect x="232" y="250" width="8.35" height="8.35" fill="#bad0f8"/>
<rect x="240" y="250" width="8.35" height="8.35" fill="#bfd3f6"/>
<rect x="248" y="250" width="8.35" height="8.35" fill="#c3d5f4"/>
<rect x="256" y="250" width="8.35" height="8.35" fill="#c7d7f0"/>
<rect x="264" y="250" width="8.35" height="8.35" fill="#cbd8ee"/>
<rect x="272" y="250" width="8.35" height="8.35" fill="#cfdaea"/>
<rect x="280" y="250" width="8.35" height="8.35" fill="#d4dbe6"/>
<rect x="288" y="250" width="8.35" height="8.35" fill="#d7dce3"/>
<rect x="296" y="250" width="8.35" height="8.35" fill="#dbdcde"/>
<rect x="304" y="250" width="8.35" height="8.35" fill="#dedcdb"/>
<rect x="312" y="250" width="8.35" height="8.35" fill="#e2dad5"/>
<rect x="320" y="250" width="8.35" height="8.35" fill="#e5d8d1"/>
<rect x="328" y="250" width="8.35" height="8.35" fill="#e9d5cb"/>
<rect x="336" y="250" width="8.35" height="8.35" fill="#ecd3c5"/>
<rect x="344" y="250" width="8.35" height="8.35" fill="#eed0c0"/>
<rect x="352" y="250" width="8.35" height="8.35" fill="#f1cdba"/>
<rect x="360" y="250" width="8.35" height="8.35" fill="#f2cab5"/>
<rect x="368" y="250" width="8.35" height="8.35" fill="#f4c6af"/>
<rect x="376" y="250" width="8.35" height="8.35" fill="#f5c1a9"/>
<rect x="384" y="250" width="8.35" height="8.35" fill="#f6bea4"/>
<rect x="392" y="250" width="8.35" height="8.35" fill="#f7b99e"/>
<rect x="400" y="250" width="8.35" height="8.35" fill="#f7b599"/>
<rect x="408" y="250" width="8.35" height="8.35" fill="#f7b093"/>
<rect x="416" y="250" width="8.35" height="8.35" fill="#f7aa8c"/>
<rect x="424" y="250" width="8.35" height="8.35" fill="#f7a688"/>
<rect x="432" y="250" width="8.35" height="8.35" fill="#f5a081"/>
<rect x="440" y="250" width="8.35" height="8.35" fill="#f59c7d"/>
<rect x="448" y="250" width="8.35" height="8.35" fill="#f39577"/>
<rect x="456" y="250" width="8.35" height="8.35" fill="#f18f71"/>
<rect x="464" y="250" width="8.35" height="8.35" fill="#f08a6c"/>
<rect x="472" y="250" width="8.35" height="8.35" fill="#ed8366"/>
<rect x="480" y="250" width="8.35" height="8.35" fill="#eb7d62"/>
<rect x="488" y="250" width="8.35" height="8.35" fill="#e8765c"/>
<rect x="496" y="250" width="8.35" height="8.35" fill="#e57058"/>
<rect x="504" y="250" width="8.35" height="8.35" fill="#e26952"/>
<rect x="512" y="250" width="8.35" height="8.35" fill="#de614d"/>
<rect x="520" y="250" width="8.35" height="8.35" fill="#da5a49"/>
<rect x="528" y="250" width="8.35" height="8.35" fill="#d65244"/>
<rect x="536" y="250" width="8.35" height="8.35" fill="#d24b40"/>
<rect x="544" y="250" width="8.35" height="8.35" fill="#cd423b"/>
<rect x="552" y="250" width="8.35" height="8.35" fill="#c83836"/>
<rect x="560" y="250" width="8.35" height="8.35" fill="#c43032"/>
<rect x="568" y="250" width="8.35" height="8.35" fill="#be242e"/>
<rect x="576" y="250" width="8.35" height="8.35" fill="#ba162b"/>
<rect x="584" y="250" width="8.35" height="8.35" fill="#b40426"/>
<rect x="16" y="282" width="8.35" height="8.35" fill="#000000"/>
<rect x="24" y="282" width="8.35" height="8.35" fill="#200019"/>
<rect x="32" y="282" width="8.35" height="8.35" fill="#2a002c"/>
<rect x="40" y="282" width="8.35" height="8.35" fill="#350044"/>
<rect x="48" y="282" width="8.35" height="8.35" fill="#3c0056"/>
<rect x="56" y="282" width="8.35" height="8.35" fill="#44006d"/>
<rect x="64" y="282" width="8.35" height="8.35" fill="#4b0084"/>
<rect x="72" y="282" width="8.35" height="8.35" fill="#500093"/>
<rect x="80" y="282" width="8.35" height="8.35" fill="#5600a7"/>
<rect x="88" y="282" width="8.35" height="8.35" fill="#5a01b5"/>
<rect x="96" y="282" width="8.35" height="8.35" fill="#6001c6"/>
<rect x="104" y="282" width="8.35" height="8.35" fill="#6501d5"/>
<rect x="112" y="282" width="8.35" height="8.35" fill="#6901de"/>
<rect x="120" y="282" width="8.35" height="8.35" fill="#6d02ea"/>
<rect x="128" y="282" width="8.35" height="8.35" fill="#7102f1"/>
<rect x="136" y="282" width="8.35" height="8.35" fill="#7502f8"/>
<rect x="144" y="282" width="8.35" height="8.35" fill="#7903fb"/>
<rect x="152" y="282" width="8.35" height="8.35" fill="#7d03fe"/>
<rect x="160" y="282" width="8.35" height="8.35" fill="#8104ff"/>
<rect x="168" y="282" width="8.35" height="8.35" fill="#8405fe"/>
<rect x="176" y="282" width="8.35" height="8.35" fill="#8706fa"/>
<rect x="184" y="282" width="8.35" height="8.35" fill="#8a06f5"/>
<rect x="192" y="282" width="8.35" height="8.35" fill="#8e08ed"/>
<rect x="200" y="282" width="8.35" height="8.35" fill="#9109e3"/>
<rect x="208" y="282" width="8.35" height="8.35" fill="#940ada"/>
<rect x="216" y="282" width="8.35" height="8.35" fill="#970bcb"/>
<rect x="224" y="282" width="8.35" height="8.35" fill="#9a0cc0"/>
<rect x="232" y="282" width="8.35" height="8.35" fill="#9d0eae"/>
<rect x="240" y="282" width="8.35" height="8.35" fill="#a0109b"/>
<rect x="248" y="282" width="8.35" height="8.35" fill="#a3118c"/>
<rect x="256" y="282" width="8.35" height="8.35" fill="#a61376"/>
<rect x="264" y="282" width="8.35" height="8.35" fill="#a81565"/>
<rect x="272" y="282" width="8.35" height="8.35" fill="#ab174d"/>
<rect x="280" y="282" width="8.35" height="8.35" fill="#ae1a35"/>
<rect x="288" y="282" width="8.35" height="8.35" fill="#b01c22"/>
<rect x="296" y="282" width="8.35" height="8.35" fill="#b31f09"/>
<rect x="304" y="282" width="8.35" height="8.35" fill="#b52100"/>
<rect x="312" y="282" width="8.35" height="8.35" fill="#b82400"/>
<rect x="320" y="282" width="8.35" height="8.35" fill="#ba2700"/>
<rect x="328" y="282" width="8.35" height="8.35" fill="#bd2a00"/>
<rect x="336" y="282" width="8.35" height="8.35" fill="#c02e00"/>
<rect x="344" y="282" width="8.35" height="8.35" fill="#c23100"/>
<rect x="352" y="282" width="8.35" height="8.35" fill="#c43500"/>
<rect x="360" y="282" width="8.35" height="8.35" fill="#c63800"/>
<rect x="368" y="282" width="8.35" height="8.35" fill="#c93d00"/>
<rect x="376" y="282" width="8.35" height="8.35" fill="#cb4100"/>
<rect x="384" y="282" width="8.35" height="8.35" fill="#cd4500"/>
<rect x="392" y="282" width="8.35" height="8.35" fill="#d04a00"/>
<rect x="400" y="282" width="8.35" height="8.35" fill="#d14e00"/>
<rect x="408" y="282" width="8.35" height="8.35" fill="#d45400"/>
<rect x="416" y="282" width="8.35" height="8.35" fill="#d65a00"/>
<rect x="424" y="282" width="8.35" height="8.35" fill="#d85e00"/>
<rect x="432" y="282" width="8.35" height="8.35" fill="#da6500"/>
<rect x="440" y="282" width="8.35" height="8.35" fill="#dc6900"/>
<rect x="448" y="282" width="8.35" height="8.35" fill="#de7000"/>
<rect x="456" y="282" width="8.35" height="8.35" fill="#e17700"/>
<rect x="464" y="282" width="8.35" height="8.35" fill="#e27d00"/>
<rect x="472" y="282" width="8.35" height="8.35" fill="#e58400"/>
<rect x="480" y="282" width="8.35" height="8.35" fill="#e68a00"/>
<rect x="488" y="282" width="8.35" height="8.35" fill="#e99300"/>
<rect x="496" y="282" width="8.35" height="8.35" fill="#ea9900"/>
<rect x="504" y="282" width="8.35" height="8.35" fill="#eca200"/>
<rect x="512" y="282" width="8.35" height="8.35" fill="#eeab00"/>
<rect x="520" y="282" width="8.35" height="8.35" fill="#f0b200"/>
<rect x="528" y="282" width="8.35" height="8.35" fill="#f2bb00"/>
<rect x="536" y="282" width="8.35" height="8.35" fill="#f4c300"/>
<rect x="544" y="282" width="8.35" height="8.35" fill="#f6cd00"/>
<rect x="552" y="282" width="8.35" height="8.35" fill="#f8d700"/>
<rect x="560" y="282" width="8.35" height="8.35" fill="#f9df00"/>
<rect x="568" y="282" width="8.35" height="8.35" fill="#fbeb00"/>
<rect x="576" y="282" width="8.35" height="8.35" fill="#fdf300"/>
<rect x="584" y="282" width="8.35" height="8.35" fill="#ffff00"/>
<rect x="16" y="314" width="8.35" height="8.35" fill="#30123b"/>
<rect x="24" y="314" width="8.35" height="8.35" fill="#351e58"/>
<rect x="32" y="314" width="8.35" height="8.35" fill="#38276d"/>
<rect x="40" y="314" width="8.35" height="8.35" fill="#3c3286"/>
<rect x="48" y="314" width="8.35" height="8.35" fill="#3f3b97"/>
<rect x="56" y="314" width="8.35" height="8.35" fill="#4146ac"/>
<rect x="64" y="314" width="8.35" height="8.35" fill="#4451bf"/>
<rect x="72" y="314" width="8.35" height="8.35" fill="#4559cb"/>
<rect x="80" y="314" width="8.35" height="8.35" fill="#4664da"/>
<rect x="88" y="314" width="8.35" height="8.35" fill="#466be3"/>
<rect x="96" y="314" width="8.35" height="8.35" fill="#4776ee"/>
<rect x="104" y="314" width="8.35" height="8.35" fill="#4680f6"/>
<rect x="112" y="314" width="8.35" height="8.35" fill="#4687fb"/>
<rect x="120" y="314" width="8.35" height="8.35" fill="#4391fe"/>
<rect x="128" y="314" width="8.35" height="8.35" fill="#4099ff"/>
<rect x="136" y="314" width="8.35" height="8.35" fill="#3aa3fc"/>
<rect x="144" y="314" width="8.35" height="8.35" fill="#35abf8"/>
<rect x="152" y="314" width="8.35" height="8.35" fill="#2eb4f2"/>
<rect x="160" y="314" width="8.35" height="8.35" fill="#27bee9"/>
<rect x="168" y="314" width="8.35" height="8.35" fill="#22c5e2"/>
<rect x="176" y="314" width="8.35" height="8.35" fill="#1ccdd8"/>
<rect x="184" y="314" width="8.35" height="8.35" fill="#1ad4d0"/>
<rect x="192" y="314" width="8.35" height="8.35" fill="#18dbc5"/>
<rect x="200" y="314" width="8.35" height="8.35" fill="#19e2bb"/>
<rect x="208" y="314" width="8.35" height="8.35" fill="#1ce6b4"/>
<rect x="216" y="314" width="8.35" height="8.35" fill="#22ebaa"/>
<rect x="224" y="314" width="8.35" height="8.35" fill="#2aefa1"/>
<rect x="232" y="314" width="8.35" height="8.35" fill="#35f394"/>
<rect x="240" y="314" width="8.35" height="8.35" fill="#43f787"/>
<rect x="248" y="314" width="8.35" height="8.35" fill="#4ef97d"/>
<rect x="256" y="314" width="8.35" height="8.35" fill="#5dfc6f"/>
<rect x="264" y="314" width="8.35" height="8.35" fill="#69fd66"/>
<rect x="272" y="314" width="8.35" height="8.35" fill="#79fe59"/>
<rect x="280" y="314" width="8.35" height="8.35" fill="#88ff4e"/>
<rect x="288" y="314" width="8.35" height="8.35" fill="#92ff47"/>
<rect x="296" y="314" width="8.35" height="8.35" fill="#9ffd3f"/>
<rect x="304" y="314" width="8.35" height="8.35" fill="#a7fc3a"/>
<rect x="312" y="314" width="8.35" height="8.35" fill="#b1f936"/>
<rect x="320" y="314" width="8.35" height="8.35" fill="#b9f635"/>
<rect x="328" y="314" width="8.35" height="8.35" fill="#c3f134"/>
<rect x="336" y="314" width="8.35" height="8.35" fill="#cdec34"/>
<rect x="344" y="314" width="8.35" height="8.35" fill="#d4e735"/>
<rect x="352" y="314" width="8.35" height="8.35" fill="#dde037"/>
<rect x="360" y="314" width="8.35" height="8.35" fill="#e3db38"/>
<rect x="368" y="314" width="8.35" height="8.35" fill="#ebd339"/>
<rect x="376" y="314" width="8.35" height="8.35" fill="#f1cb3a"/>
<rect x="384" y="314" width="8.35" height="8.35" fill="#f5c53a"/>
<rect x="392" y="314" width="8.35" height="8.35" fill="#f9bc39"/>
<rect x="400" y="314" width="8.35" height="8.35" fill="#fbb637"/>
<rect x="408" y="314" width="8.35" height="8.35" fill="#fdac34"/>
<rect x="416" y="314" width="8.35" height="8.35" fill="#fea130"/>
<rect x="424" y="314" width="8.35" height="8.35" fill="#fe992c"/>
<rect x="432" y="314" width="8.35" height="8.35" fill="#fd8d27"/>
<rect x="440" y="314" width="8.35" height="8.35" fill="#fc8423"/>
<rect x="448" y="314" width="8.35" height="8.35" fill="#f9781e"/>
<rect x="456" y="314" width="8.35" height="8.35" fill="#f66c19"/>
<rect x="464" y="314" width="8.35" height="8.35" fill="#f36315"/>
<rect x="472" y="314" width="8.35" height="8.35" fill="#ef5811"/>
<rect x="480" y="314" width="8.35" height="8.35" fill="#eb500e"/>
<rect x="488" y="314" width="8.35" height="8.35" fill="#e5470b"/>
<rect x="496" y="314" width="8.35" height="8.35" fill="#e14109"/>
<rect x="504" y="314" width="8.35" height="8.35" fill="#da3907"/>
<rect x="512" y="314" width="8.35" height="8.35" fill="#d23105"/>
<rect x="520" y="314" width="8.35" height="8.35" fill="#cc2b04"/>
<rect x="528" y="314" width="8.35" height="8.35" fill="#c32503"/>
<rect x="536" y="314" width="8.35" height="8.35" fill="#bc2002"/>
<rect x="544" y="314" width="8.35" height="8.35" fill="#b21a01"/>
<rect x="552" y="314" width="8.35" height="8.35" fill="#a71401"/>
<rect x="560" y="314" width="8.35" height="8.35" fill="#9e1001"/>
<rect x="568" y="314" width="8.35" height="8.35" fill="#920b01"/>
<rect x="576" y="314" width="8.35" height="8.35" fill="#880802"/>
<rect x="584" y="314" width="8.35" height="8.35" fill="#7a0403"/>
</g>
<text x="16" y="54" font-family="ui-monospace, SFMono-Regular, Menlo, Consolas, monospace" font-size="13" fill="#e5e7eb">gray:</text>
<text x="64" y="54" font-family="ui-monospace, SFMono-Regular, Menlo, Consolas, monospace" font-size="13" fill="#e5e7eb">data=1x72</text>
<text x="144" y="54" font-family="ui-monospace, SFMono-Regular, Menlo, Consolas, monospace" font-size="13" fill="#e5e7eb">cmap=gray</text>
<text x="16" y="86" font-family="ui-monospace, SFMono-Regular, Menlo, Consolas, monospace" font-size="13" fill="#e5e7eb">viridis:</text>
<text x="88" y="86" font-family="ui-monospace, SFMono-Regular, Menlo, Consolas, monospace" font-size="13" fill="#e5e7eb">data=1x72</text>
<text x="168" y="86" font-family="ui-monospace, SFMono-Regular, Menlo, Consolas, monospace" font-size="13" fill="#e5e7eb">cmap=viridis</text>
<text x="16" y="118" font-family="ui-monospace, SFMono-Regular, Menlo, Consolas, monospace" font-size="13" fill="#e5e7eb">plasma:</text>
<text x="80" y="118" font-family="ui-monospace, SFMono-Regular, Menlo, Consolas, monospace" font-size="13" fill="#e5e7eb">data=1x72</text>
<text x="160" y="118" font-family="ui-monospace, SFMono-Regular, Menlo, Consolas, monospace" font-size="13" fill="#e5e7eb">cmap=plasma</text>
<text x="16" y="150" font-family="ui-monospace, SFMono-Regular, Menlo, Consolas, monospace" font-size="13" fill="#e5e7eb">inferno:</text>
<text x="88" y="150" font-family="ui-monospace, SFMono-Regular, Menlo, Consolas, monospace" font-size="13" fill="#e5e7eb">data=1x72</text>
<text x="168" y="150" font-family="ui-monospace, SFMono-Regular, Menlo, Consolas, monospace" font-size="13" fill="#e5e7eb">cmap=inferno</text>
<text x="16" y="182" font-family="ui-monospace, SFMono-Regular, Menlo, Consolas, monospace" font-size="13" fill="#e5e7eb">magma:</text>
<text x="72" y="182" font-family="ui-monospace, SFMono-Regular, Menlo, Consolas, monospace" font-size="13" fill="#e5e7eb">data=1x72</text>
<text x="152" y="182" font-family="ui-monospace, SFMono-Regular, Menlo, Consolas, monospace" font-size="13" fill="#e5e7eb">cmap=magma</text>
<text x="16" y="214" font-family="ui-monospace, SFMono-Regular, Menlo, Consolas, monospace" font-size="13" fill="#e5e7eb">cividis:</text>
<text x="88" y="214" font-family="ui-monospace, SFMono-Regular, Menlo, Consolas, monospace" font-size="13" fill="#e5e7eb">data=1x72</text>
<text x="168" y="214" font-family="ui-monospace, SFMono-Regular, Menlo, Consolas, monospace" font-size="13" fill="#e5e7eb">cmap=cividis</text>
<text x="16" y="246" font-family="ui-monospace, SFMono-Regular, Menlo, Consolas, monospace" font-size="13" fill="#e5e7eb">coolwarm:</text>
<text x="96" y="246" font-family="ui-monospace, SFMono-Regular, Menlo, Consolas, monospace" font-size="13" fill="#e5e7eb">data=1x72</text>
<text x="176" y="246" font-family="ui-monospace, SFMono-Regular, Menlo, Consolas, monospace" font-size="13" fill="#e5e7eb">cmap=coolwarm</text>
<text x="16" y="278" font-family="ui-monospace, SFMono-Regular, Menlo, Consolas, monospace" font-size="13" fill="#e5e7eb">gnuplot:</text>
<text x="88" y="278" font-family="ui-monospace, SFMono-Regular, Menlo, Consolas, monospace" font-size="13" fill="#e5e7eb">data=1x72</text>
<text x="168" y="278" font-family="ui-monospace, SFMono-Regular, Menlo, Consolas, monospace" font-size="13" fill="#e5e7eb">cmap=gnuplot</text>
<text x="16" y="310" font-family="ui-monospace, SFMono-Regular, Menlo, Consolas, monospace" font-size="13" fill="#e5e7eb">turbo:</text>
<text x="72" y="310" font-family="ui-monospace, SFMono-Regular, Menlo, Consolas, monospace" font-size="13" fill="#e5e7eb">data=1x72</text>
<text x="152" y="310" font-family="ui-monospace, SFMono-Regular, Menlo, Consolas, monospace" font-size="13" fill="#e5e7eb">cmap=turbo</text>
</g>
</svg>
