<svg xmlns="http://www.w3.org/2000/svg" width="240" height="172" viewBox="0 0 240 172" role="img" aria-label="01_readme_minimal terminal output">
<defs><clipPath id="clip"><rect x="0" y="0" width="100%" height="100%" rx="10" ry="10"/></clipPath></defs>
<g clip-path="url(#clip)">
<rect width="100%" height="100%" fill="#111827"/>
<rect width="100%" height="24" fill="#111827"/>
<circle cx="16" cy="12" r="5" fill="#ff5f57"/>
<circle cx="32" cy="12" r="5" fill="#ffbd2e"/>
<circle cx="48" cy="12" r="5" fill="#28c840"/>
<text x="68" y="16" font-family="ui-monospace, SFMono-Regular, Menlo, Consolas, monospace" font-size="11" fill="#9ca3af">01_readme_minimal</text>
<g shape-rendering="crispEdges">
<rect x="16" y="42" width="8.35" height="8.35" fill="#000000"/>
<rect x="16" y="49.65" width="8.35" height="8.7" fill="#000000"/>
<rect x="24" y="42" width="8.35" height="8.35" fill="#000000"/>
<rect x="24" y="49.65" width="8.35" height="8.7" fill="#000000"/>
<rect x="32" y="42" width="8.35" height="8.35" fill="#000000"/>
<rect x="32" y="49.65" width="8.35" height="8.7" fill="#000000"/>
<rect x="40" y="42" width="8.35" height="8.35" fill="#000000"/>
<rect x="40" y="49.65" width="8.35" height="8.7" fill="#000000"/>
<rect x="48" y="42" width="8.35" height="8.35" fill="#000000"/>
<rect x="48" y="49.65" width="8.35" height="8.7" fill="#000000"/>
<rect x="56" y="42" width="8.35" height="8.35" fill="#000000"/>
<rect x="56" y="49.65" width="8.35" height="8.7" fill="#000000"/>
<rect x="64" y="42" width="8.35" height="8.35" fill="#333333"/>
<rect x="64" y="49.65" width="8.35" height="8.7" fill="#333333"/>
<rect x="72" y="42" width="8.35" height="8.35" fill="#333333"/>
<rect x="72" y="49.65" width="8.35" height="8.7" fill="#333333"/>
<rect x="80" y="42" width="8.35" height="8.35" fill="#333333"/>
<rect x="80" y="49.65" width="8.35" height="8.7" fill="#333333"/>
<rect x="88" y="42" width="8.35" height="8.35" fill="#333333"/>
<rect x="88" y="49.65" width="8.35" height="8.7" fill="#333333"/>
<rect x="96" y="42" width="8.35" height="8.35" fill="#333333"/>
<rect x="96" y="49.65" width="8.35" height="8.7" fill="#333333"/>
<rect x="104" y="42" width="8.35" height="8.35" fill="#333333"/>
<rect x="104" y="49.65" width="8.35" height="8.7" fill="#333333"/>
<rect x="112" y="42" width="8.35" height="8.35" fill="#666666"/>
<rect x="112" y="49.65" width="8.35" height="8.7" fill="#666666"/>
<rect x="120" y="42" width="8.35" height="8.35" fill="#666666"/>
<rect x="120" y="49.65" width="8.35" height="8.7" fill="#666666"/>
<rect x="128" y="42" width="8.35" height="8.35" fill="#666666"/>
<rect x="128" y="49.65" width="8.35" height="8.7" fill="#666666"/>
<rect x="136" y="42" width="8.35" height="8.35" fill="#666666"/>
<rect x="136" y="49.65" width="8.35" height="8.7" fill="#666666"/>
<rect x="144" y="42" width="8.35" height="8.35" fill="#666666"/>
<rect x="144" y="49.65" width="8.35" height="8.7" fill="#666666"/>
<rect x="152" y="42" width="8.35" height="8.35" fill="#666666"/>
<rect x="152" y="49.65" width="8.35" height="8.7" fill="#666666"/>
<rect x="16" y="58" width="8.35" height="8.35" fill="#000000"/>
<rect x="16" y="65.65" width="8.35" height="8.7" fill="#000000"/>
<rect x="24" y="58" width="8.35" height="8.35" fill="#000000"/>
<rect x="24" y="65.65" width="8.35" height="8.7" fill="#000000"/>
<rect x="32" y="58" width="8.35" height="8.35" fill="#000000"/>
<rect x="32" y="65.65" width="8.35" height="8.7" fill="#000000"/>
<rect x="40" y="58" width="8.35" height="8.35" fill="#000000"/>
<rect x="40" y="65.65" width="8.35" height="8.7" fill="#000000"/>
<rect x="48" y="58" width="8.35" height="8.35" fill="#000000"/>
<rect x="48" y="65.65" width="8.35" height="8.7" fill="#000000"/>
<rect x="56" y="58" width="8.35" height="8.35" fill="#000000"/>
<rect x="56" y="65.65" width="8.35" height="8.7" fill="#000000"/>
<rect x="64" y="58" width="8.35" height="8.35" fill="#333333"/>
<rect x="64" y="65.65" width="8.35" height="8.7" fill="#333333"/>
<rect x="72" y="58" width="8.35" height="8.35" fill="#333333"/>
<rect x="72" y="65.65" width="8.35" height="8.7" fill="#333333"/>
<rect x="80" y="58" width="8.35" height="8.35" fill="#333333"/>
<rect x="80" y="65.65" width="8.35" height="8.7" fill="#333333"/>
<rect x="88" y="58" width="8.35" height="8.35" fill="#333333"/>
<rect x="88" y="65.65" width="8.35" height="8.7" fill="#333333"/>
<rect x="96" y="58" width="8.35" height="8.35" fill="#333333"/>
<rect x="96" y="65.65" width="8.35" height="8.7" fill="#333333"/>
<rect x="104" y="58" width="8.35" height="8.35" fill="#333333"/>
<rect x="104" y="65.65" width="8.35" height="8.7" fill="#333333"/>
<rect x="112" y="58" width="8.35" height="8.35" fill="#666666"/>
<rect x="112" y="65.65" width="8.35" height="8.7" fill="#666666"/>
<rect x="120" y="58" width="8.35" height="8.35" fill="#666666"/>
<rect x="120" y="65.65" width="8.35" height="8.7" fill="#666666"/>
<rect x="128" y="58" width="8.35" height="8.35" fill="#666666"/>
<rect x="128" y="65.65" width="8.35" height="8.7" fill="#666666"/>
<rect x="136" y="58" width="8.35" height="8.35" fill="#666666"/>
<rect x="136" y="65.65" width="8.35" height="8.7" fill="#666666"/>
<rect x="144" y="58" width="8.35" height="8.35" fill="#666666"/>
<rect x="144" y="65.65" width="8.35" height="8.7" fill="#666666"/>
<rect x="152" y="58" width="8.35" height="8.35" fill="#666666"/>
<rect x="152" y="65.65" width="8.35" height="8.7" fill="#666666"/>
<rect x="16" y="74" width="8.35" height="8.35" fill="#000000"/>
<rect x="16" y="81.65" width="8.35" height="8.7" fill="#000000"/>
<rect x="24" y="74" width="8.35" height="8.35" fill="#000000"/>
<rect x="24" y="81.65" width="8.35" height="8.7" fill="#000000"/>
<rect x="32" y="74" width="8.35" height="8.35" fill="#000000"/>
<rect x="32" y="81.65" width="8.35" height="8.7" fill="#000000"/>
<rect x="40" y="74" width="8.35" height="8.35" fill="#000000"/>
<rect x="40" y="81.65" width="8.35" height="8.7" fill="#000000"/>
<rect x="48" y="74" width="8.35" height="8.35" fill="#000000"/>
<rect x="48" y="81.65" width="8.35" height="8.7" fill="#000000"/>
<rect x="56" y="74" width="8.35" height="8.35" fill="#000000"/>
<rect x="56" y="81.65" width="8.35" height="8.7" fill="#000000"/>
<rect x="64" y="74" width="8.35" height="8.35" fill="#333333"/>
<rect x="64" y="81.65" width="8.35" height="8.7" fill="#333333"/>
<rect x="72" y="74" width="8.35" height="8.35" fill="#333333"/>
<rect x="72" y="81.65" width="8.35" height="8.7" fill="#333333"/>
<rect x="80" y="74" width="8.35" height="8.35" fill="#333333"/>
<rect x="80" y="81.65" width="8.35" height="8.7" fill="#333333"/>
<rect x="88" y="74" width="8.35" height="8.35" fill="#333333"/>
<rect x="88" y="81.65" width="8.35" height="8.7" fill="#333333"/>
<rect x="96" y="74" width="8.35" height="8.35" fill="#333333"/>
<rect x="96" y="81.65" width="8.35" height="8.7" fill="#333333"/>
<rect x="104" y="74" width="8.35" height="8.35" fill="#333333"/>
<rect x="104" y="81.65" width="8.35" height="8.7" fill="#333333"/>
<rect x="112" y="74" width="8.35" height="8.35" fill="#666666"/>
<rect x="112" y="81.65" width="8.35" height="8.7" fill="#666666"/>
<rect x="120" y="74" width="8.35" height="8.35" fill="#666666"/>
<rect x="120" y="81.65" width="8.35" height="8.7" fill="#666666"/>
<rect x="128" y="74" width="8.35" height="8.35" fill="#666666"/>
<rect x="128" y="81.65" width="8.35" height="8.7" fill="#666666"/>
<rect x="136" y="74" width="8.35" height="8.35" fill="#666666"/>
<rect x="136" y="81.65" width="8.35" height="8.7" fill="#666666"/>
<rect x="144" y="74" width="8.35" height="8.35" fill="#666666"/>
<rect x="144" y="81.65" width="8.35" height="8.7" fill="#666666"/>
<rect x="152" y="74" width="8.35" height="8.35" fill="#666666"/>
<rect x="152" y="81.65" width="8.35" height="8.7" fill="#666666"/>
<rect x="16" y="90" width="8.35" height="8.35" fill="#999999"/>
<rect x="16" y="97.65" width="8.35" height="8.7" fill="#999999"/>
<rect x="24" y="90" width="8.35" height="8.35" fill="#999999"/>
<rect x="24" y="97.65" width="8.35" height="8.7" fill="#999999"/>
<rect x="32" y="90" width="8.35" height="8.35" fill="#999999"/>
<rect x="32" y="97.65" width="8.35" height="8.7" fill="#999999"/>
<rect x="40" y="90" width="8.35" height="8.35" fill="#999999"/>
<rect x="40" y="97.65" width="8.35" height="8.7" fill="#999999"/>
<rect x="48" y="90" width="8.35" height="8.35" fill="#999999"/>
<rect x="48" y="97.65" width="8.35" height="8.7" fill="#999999"/>
<rect x="56" y="90" width="8.35" height="8.35" fill="#999999"/>
<rect x="56" y="97.65" width="8.35" height="8.7" fill="#999999"/>
<rect x="64" y="90" width="8.35" height="8.35" fill="#cccccc"/>
<rect x="64" y="97.65" width="8.35" height="8.7" fill="#cccccc"/>
<rect x="72" y="90" width="8.35" height="8.35" fill="#cccccc"/>
<rect x="72" y="97.65" width="8.35" height="8.7" fill="#cccccc"/>
<rect x="80" y="90" width="8.35" height="8.35" fill="#cccccc"/>
<rect x="80" y="97.65" width="8.35" height="8.7" fill="#cccccc"/>
<rect x="88" y="90" width="8.35" height="8.35" fill="#cccccc"/>
<rect x="88" y="97.65" width="8.35" height="8.7" fill="#cccccc"/>
<rect x="96" y="90" width="8.35" height="8.35" fill="#cccccc"/>
<rect x="96" y="97.65" width="8.35" height="8.7" fill="#cccccc"/>
<rect x="104" y="90" width="8.35" height="8.35" fill="#cccccc"/>
<rect x="104" y="97.65" width="8.35" height="8.7" fill="#cccccc"/>
<rect x="112" y="90" width="8.35" height="8.35" fill="#ffffff"/>
<rect x="112" y="97.65" width="8.35" height="8.7" fill="#ffffff"/>
<rect x="120" y="90" width="8.35" height="8.35" fill="#ffffff"/>
<rect x="120" y="97.65" width="8.35" height="8.7" fill="#ffffff"/>
<rect x="128" y="90" width="8.35" height="8.35" fill="#ffffff"/>
<rect x="128" y="97.65" width="8.35" height="8.7" fill="#ffffff"/>
<rect x="136" y="90" width="8.35" height="8.35" fill="#ffffff"/>
<rect x="136" y="97.65" width="8.35" height="8.7" fill="#ffffff"/>
<rect x="144" y="90" width="8.35" height="8.35" fill="#ffffff"/>
<rect x="144" y="97.65" width="8.35" height="8.7" fill="#ffffff"/>
<rect x="152" y="90" width="8.35" height="8.35" fill="#ffffff"/>
<rect x="152" y="97.65" width="8.35" height="8.7" fill="#ffffff"/>
<rect x="16" y="106" width="8.35" height="8.35" fill="#999999"/>
<rect x="16" y="113.65" width="8.35" height="8.7" fill="#999999"/>
<rect x="24" y="106" width="8.35" height="8.35" fill="#999999"/>
<rect x="24" y="113.65" width="8.35" height="8.7" fill="#999999"/>
<rect x="32" y="106" width="8.35" height="8.35" fill="#999999"/>
<rect x="32" y="113.65" width="8.35" height="8.7" fill="#999999"/>
<rect x="40" y="106" width="8.35" height="8.35" fill="#999999"/>
<rect x="40" y="113.65" width="8.35" height="8.7" fill="#999999"/>
<rect x="48" y="106" width="8.35" height="8.35" fill="#999999"/>
<rect x="48" y="113.65" width="8.35" height="8.7" fill="#999999"/>
<rect x="56" y="106" width="8.35" height="8.35" fill="#999999"/>
<rect x="56" y="113.65" width="8.35" height="8.7" fill="#999999"/>
<rect x="64" y="106" width="8.35" height="8.35" fill="#cccccc"/>
<rect x="64" y="113.65" width="8.35" height="8.7" fill="#cccccc"/>
<rect x="72" y="106" width="8.35" height="8.35" fill="#cccccc"/>
<rect x="72" y="113.65" width="8.35" height="8.7" fill="#cccccc"/>
<rect x="80" y="106" width="8.35" height="8.35" fill="#cccccc"/>
<rect x="80" y="113.65" width="8.35" height="8.7" fill="#cccccc"/>
<rect x="88" y="106" width="8.35" height="8.35" fill="#cccccc"/>
<rect x="88" y="113.65" width="8.35" height="8.7" fill="#cccccc"/>
<rect x="96" y="106" width="8.35" height="8.35" fill="#cccccc"/>
<rect x="96" y="113.65" width="8.35" height="8.7" fill="#cccccc"/>
<rect x="104" y="106" width="8.35" height="8.35" fill="#cccccc"/>
<rect x="104" y="113.65" width="8.35" height="8.7" fill="#cccccc"/>
<rect x="112" y="106" width="8.35" height="8.35" fill="#ffffff"/>
<rect x="112" y="113.65" width="8.35" height="8.7" fill="#ffffff"/>
<rect x="120" y="106" width="8.35" height="8.35" fill="#ffffff"/>
<rect x="120" y="113.65" width="8.35" height="8.7" fill="#ffffff"/>
<rect x="128" y="106" width="8.35" height="8.35" fill="#ffffff"/>
<rect x="128" y="113.65" width="8.35" height="8.7" fill="#ffffff"/>
<rect x="136" y="106" width="8.35" height="8.35" fill="#ffffff"/>
<rect x="136" y="113.65" width="8.35" height="8.7" fill="#ffffff"/>
<rect x="144" y="106" width="8.35" height="8.35" fill="#ffffff"/>
<rect x="144" y="113.65" width="8.35" height="8.7" fill="#ffffff"/>
<rect x="152" y="106" width="8.35" height="8.35" fill="#ffffff"/>
<rect x="152" y="113.65" width="8.35" height="8.7" fill="#ffffff"/>
<rect x="16" y="122" width="8.35" height="8.35" fill="#999999"/>
<rect x="16" y="129.65" width="8.35" height="8.7" fill="#999999"/>
<rect x="24" y="122" width="8.35" height="8.35" fill="#999999"/>
<rect x="24" y="129.65" width="8.35" height="8.7" fill="#999999"/>
<rect x="32" y="122" width="8.35" height="8.35" fill="#999999"/>
<rect x="32" y="129.65" width="8.35" height="8.7" fill="#999999"/>
<rect x="40" y="122" width="8.35" height="8.35" fill="#999999"/>
<rect x="40" y="129.65" width="8.35" height="8.7" fill="#999999"/>
<rect x="48" y="122" width="8.35" height="8.35" fill="#999999"/>
<rect x="48" y="129.65" width="8.35" height="8.7" fill="#999999"/>
<rect x="56" y="122" width="8.35" height="8.35" fill="#999999"/>
<rect x="56" y="129.65" width="8.35" height="8.7" fill="#999999"/>
<rect x="64" y="122" width="8.35" height="8.35" fill="#cccccc"/>
<rect x="64" y="129.65" width="8.35" height="8.7" fill="#cccccc"/>
<rect x="72" y="122" width="8.35" height="8.35" fill="#cccccc"/>
<rect x="72" y="129.65" width="8.35" height="8.7" fill="#cccccc"/>
<rect x="80" y="122" width="8.35" height="8.35" fill="#cccccc"/>
<rect x="80" y="129.65" width="8.35" height="8.7" fill="#cccccc"/>
<rect x="88" y="122" width="8.35" height="8.35" fill="#cccccc"/>
<rect x="88" y="129.65" width="8.35" height="8.7" fill="#cccccc"/>
<rect x="96" y="122" width="8.35" height="8.35" fill="#cccccc"/>
<rect x="96" y="129.65" width="8.35" height="8.7" fill="#cccccc"/>
<rect x="104" y="122" width="8.35" height="8.35" fill="#cccccc"/>
<rect x="104" y="129.65" width="8.35" height="8.7" fill="#cccccc"/>
<rect x="112" y="122" width="8.35" height="8.35" fill="#ffffff"/>
<rect x="112" y="129.65" width="8.35" height="8.7" fill="#ffffff"/>
<rect x="120" y="122" width="8.35" height="8.35" fill="#ffffff"/>
<rect x="120" y="129.65" width="8.35" height="8.7" fill="#ffffff"/>
<rect x="128" y="122" width="8.35" height="8.35" fill="#ffffff"/>
<rect x="128" y="129.65" width="8.35" height="8.7" fill="#ffffff"/>
<rect x="136" y="122" width="8.35" height="8.35" fill="#ffffff"/>
<rect x="136" y="129.65" width="8.35" height="8.7" fill="#ffffff"/>
<rect x="144" y="122" width="8.35" height="8.35" fill="#ffffff"/>
<rect x="144" y="129.65" width="8.35" height="8.7" fill="#ffffff"/>
<rect x="152" y="122" width="8.35" height="8.35" fill="#ffffff"/>
<rect x="152" y="129.65" width="8.35" height="8.7" fill="#ffffff"/>
<rect x="32" y="138" width="8.35" height="16.35" fill="#000000"/>
<rect x="40" y="138" width="8.35" height="16.35" fill="#141414"/>
<rect x="48" y="138" width="8.35" height="16.35" fill="#272727"/>
<rect x="56" y="138" width="8.35" height="16.35" fill="#3b3b3b"/>
<rect x="64" y="138" width="8.35" height="16.35" fill="#4e4e4e"/>
<rect x="72" y="138" width="8.35" height="16.35" fill="#626262"/>
<rect x="80" y="138" width="8.35" height="16.35" fill="#767676"/>
<rect x="88" y="138" width="8.35" height="16.35" fill="#898989"/>
<rect x="96" y="138" width="8.35" height="16.35" fill="#9d9d9d"/>
<rect x="104" y="138" width="8.35" height="16.35" fill="#b1b1b1"/>
<rect x="112" y="138" width="8.35" height="16.35" fill="#c4c4c4"/>
<rect x="120" y="138" width="8.35" height="16.35" fill="#d8d8d8"/>
<rect x="128" y="138" width="8.35" height="16.35" fill="#ebebeb"/>
<rect x="136" y="138" width="8.35" height="16.35" fill="#ffffff"/>
</g>
<text x="16" y="150" font-family="ui-monospace, SFMono-Regular, Menlo, Consolas, monospace" font-size="13" fill="#e5e7eb">1</text>
<text x="152" y="150" font-family="ui-monospace, SFMono-Regular, Menlo, Consolas, monospace" font-size="13" fill="#e5e7eb">6</text>
</g>
</svg>
