<svg xmlns="http://www.w3.org/2000/svg" width="560" height="188" viewBox="0 0 560 188" role="img" aria-label="04_highlight_nans terminal output">
<defs><clipPath id="clip"><rect x="0" y="0" width="100%" height="100%" rx="10" ry="10"/></clipPath></defs>
<g clip-path="url(#clip)">
<rect width="100%" height="100%" fill="#111827"/>
<rect width="100%" height="24" fill="#111827"/>
<circle cx="16" cy="12" r="5" fill="#ff5f57"/>
<circle cx="32" cy="12" r="5" fill="#ffbd2e"/>
<circle cx="48" cy="12" r="5" fill="#28c840"/>
<text x="68" y="16" font-family="ui-monospace, SFMono-Regular, Menlo, Consolas, monospace" font-size="11" fill="#9ca3af">04_highlight_nans</text>
<g shape-rendering="crispEdges">
<rect x="16" y="58" width="8.35" height="8.35" fill="#404040"/>
<rect x="16" y="65.65" width="8.35" height="8.7" fill="#434343"/>
<rect x="24" y="58" width="8.35" height="8.35" fill="#434343"/>
<rect x="24" y="65.65" width="8.35" height="8.7" fill="#464646"/>
<rect x="32" y="58" width="8.35" height="8.35" fill="#454545"/>
<rect x="32" y="65.65" width="8.35" height="8.7" fill="#494949"/>
<rect x="40" y="58" width="8.35" height="8.35" fill="#484848"/>
<rect x="40" y="65.65" width="8.35" height="8.7" fill="#4c4c4c"/>
<rect x="48" y="58" width="8.35" height="8.35" fill="#4b4b4b"/>
<rect x="48" y="65.65" width="8.35" height="8.7" fill="#4e4e4e"/>
<rect x="56" y="58" width="8.35" height="8.35" fill="#4e4e4e"/>
<rect x="56" y="65.65" width="8.35" height="8.7" fill="#515151"/>
<rect x="64" y="58" width="8.35" height="8.35" fill="#505050"/>
<rect x="64" y="65.65" width="8.35" height="8.7" fill="#545454"/>
<rect x="72" y="58" width="8.35" height="8.35" fill="#535353"/>
<rect x="72" y="65.65" width="8.35" height="8.7" fill="#575757"/>
<rect x="80" y="58" width="8.35" height="8.35" fill="#565656"/>
<rect x="80" y="65.65" width="8.35" height="8.7" fill="#5a5a5a"/>
<rect x="88" y="58" width="8.35" height="8.35" fill="#595959"/>
<rect x="88" y="65.65" width="8.35" height="8.7" fill="#5d5d5d"/>
<rect x="96" y="58" width="8.35" height="8.35" fill="#5c5c5c"/>
<rect x="96" y="65.65" width="8.35" height="8.7" fill="#606060"/>
<rect x="104" y="58" width="8.35" height="8.35" fill="#5e5e5e"/>
<rect x="104" y="65.65" width="8.35" height="8.7" fill="#636363"/>
<rect x="112" y="58" width="8.35" height="8.35" fill="#616161"/>
<rect x="112" y="65.65" width="8.35" height="8.7" fill="#676767"/>
<rect x="120" y="58" width="8.35" height="8.35" fill="#646464"/>
<rect x="120" y="65.65" width="8.35" height="8.7" fill="#6a6a6a"/>
<rect x="128" y="58" width="8.35" height="8.35" fill="#676767"/>
<rect x="128" y="65.65" width="8.35" height="8.7" fill="#6d6d6d"/>
<rect x="136" y="58" width="8.35" height="8.35" fill="#6a6a6a"/>
<rect x="136" y="65.65" width="8.35" height="8.7" fill="#707070"/>
<rect x="144" y="58" width="8.35" height="8.35" fill="#6c6c6c"/>
<rect x="144" y="65.65" width="8.35" height="8.7" fill="#727272"/>
<rect x="152" y="58" width="8.35" height="8.35" fill="#6f6f6f"/>
<rect x="152" y="65.65" width="8.35" height="8.7" fill="#747474"/>
<rect x="160" y="58" width="8.35" height="8.35" fill="#727272"/>
<rect x="160" y="65.65" width="8.35" height="8.7" fill="#767676"/>
<rect x="168" y="58" width="8.35" height="8.35" fill="#747474"/>
<rect x="168" y="65.65" width="8.35" height="8.7" fill="#797979"/>
<rect x="176" y="58" width="8.35" height="8.35" fill="#777777"/>
<rect x="176" y="65.65" width="8.35" height="8.7" fill="#7b7b7b"/>
<rect x="184" y="58" width="8.35" height="8.35" fill="#7a7a7a"/>
<rect x="184" y="65.65" width="8.35" height="8.7" fill="#7e7e7e"/>
<rect x="192" y="58" width="8.35" height="8.35" fill="#7d7d7d"/>
<rect x="192" y="65.65" width="8.35" height="8.7" fill="#808080"/>
<rect x="200" y="58" width="8.35" height="8.35" fill="#808080"/>
<rect x="200" y="65.65" width="8.35" height="8.7" fill="#838383"/>
<rect x="16" y="74" width="8.35" height="8.35" fill="#474747"/>
<rect x="16" y="81.65" width="8.35" height="8.7" fill="#4a4a4a"/>
<rect x="24" y="74" width="8.35" height="8.35" fill="#494949"/>
<rect x="24" y="81.65" width="8.35" height="8.7" fill="#4d4d4d"/>
<rect x="32" y="74" width="8.35" height="8.35" fill="#4c4c4c"/>
<rect x="32" y="81.65" width="8.35" height="8.7" fill="#505050"/>
<rect x="40" y="74" width="8.35" height="8.35" fill="#4f4f4f"/>
<rect x="40" y="81.65" width="8.35" height="8.7" fill="#535353"/>
<rect x="48" y="74" width="8.35" height="8.35" fill="#ff1493"/>
<rect x="48" y="81.65" width="8.35" height="8.7" fill="#555555"/>
<rect x="56" y="74" width="8.35" height="8.35" fill="#555555"/>
<rect x="56" y="81.65" width="8.35" height="8.7" fill="#585858"/>
<rect x="64" y="74" width="8.35" height="8.35" fill="#585858"/>
<rect x="64" y="81.65" width="8.35" height="8.7" fill="#5c5c5c"/>
<rect x="72" y="74" width="8.35" height="8.35" fill="#5b5b5b"/>
<rect x="72" y="81.65" width="8.35" height="8.7" fill="#606060"/>
<rect x="80" y="74" width="8.35" height="8.35" fill="#5e5e5e"/>
<rect x="80" y="81.65" width="8.35" height="8.7" fill="#656565"/>
<rect x="88" y="74" width="8.35" height="8.35" fill="#636363"/>
<rect x="88" y="81.65" width="8.35" height="8.7" fill="#6e6e6e"/>
<rect x="96" y="74" width="8.35" height="8.35" fill="#686868"/>
<rect x="96" y="81.65" width="8.35" height="8.7" fill="#7a7a7a"/>
<rect x="104" y="74" width="8.35" height="8.35" fill="#6f6f6f"/>
<rect x="104" y="81.65" width="8.35" height="8.7" fill="#898989"/>
<rect x="112" y="74" width="8.35" height="8.35" fill="#767676"/>
<rect x="112" y="81.65" width="8.35" height="8.7" fill="#9a9a9a"/>
<rect x="120" y="74" width="8.35" height="8.35" fill="#7c7c7c"/>
<rect x="120" y="81.65" width="8.35" height="8.7" fill="#a9a9a9"/>
<rect x="128" y="74" width="8.35" height="8.35" fill="#818181"/>
<rect x="128" y="81.65" width="8.35" height="8.7" fill="#b2b2b2"/>
<rect x="136" y="74" width="8.35" height="8.35" fill="#838383"/>
<rect x="136" y="81.65" width="8.35" height="8.7" fill="#b3b3b3"/>
<rect x="144" y="74" width="8.35" height="8.35" fill="#838383"/>
<rect x="144" y="81.65" width="8.35" height="8.7" fill="#acacac"/>
<rect x="152" y="74" width="8.35" height="8.35" fill="#828282"/>
<rect x="152" y="81.65" width="8.35" height="8.7" fill="#a1a1a1"/>
<rect x="160" y="74" width="8.35" height="8.35" fill="#808080"/>
<rect x="160" y="81.65" width="8.35" height="8.7" fill="#969696"/>
<rect x="168" y="74" width="8.35" height="8.35" fill="#808080"/>
<rect x="168" y="81.65" width="8.35" height="8.7" fill="#8e8e8e"/>
<rect x="176" y="74" width="8.35" height="8.35" fill="#808080"/>
<rect x="176" y="81.65" width="8.35" height="8.7" fill="#898989"/>
<rect x="184" y="74" width="8.35" height="8.35" fill="#828282"/>
<rect x="184" y="81.65" width="8.35" height="8.7" fill="#888888"/>
<rect x="192" y="74" width="8.35" height="8.35" fill="#848484"/>
<rect x="192" y="81.65" width="8.35" height="8.7" fill="#888888"/>
<rect x="200" y="74" width="8.35" height="8.35" fill="#878787"/>
<rect x="200" y="81.65" width="8.35" height="8.7" fill="#8a8a8a"/>
<rect x="16" y="90" width="8.35" height="8.35" fill="#4e4e4e"/>
<rect x="16" y="97.65" width="8.35" height="8.7" fill="#515151"/>
<rect x="24" y="90" width="8.35" height="8.35" fill="#505050"/>
<rect x="24" y="97.65" width="8.35" height="8.7" fill="#545454"/>
<rect x="32" y="90" width="8.35" height="8.35" fill="#535353"/>
<rect x="32" y="97.65" width="8.35" height="8.7" fill="#575757"/>
<rect x="40" y="90" width="8.35" height="8.35" fill="#565656"/>
<rect x="40" y="97.65" width="8.35" height="8.7" fill="#595959"/>
<rect x="48" y="90" width="8.35" height="8.35" fill="#595959"/>
<rect x="48" y="97.65" width="8.35" height="8.7" fill="#5c5c5c"/>
<rect x="56" y="90" width="8.35" height="8.35" fill="#5c5c5c"/>
<rect x="56" y="97.65" width="8.35" height="8.7" fill="#5f5f5f"/>
<rect x="64" y="90" width="8.35" height="8.35" fill="#606060"/>
<rect x="64" y="97.65" width="8.35" height="8.7" fill="#636363"/>
<rect x="72" y="90" width="8.35" height="8.35" fill="#656565"/>
<rect x="72" y="97.65" width="8.35" height="8.7" fill="#696969"/>
<rect x="80" y="90" width="8.35" height="8.35" fill="#6d6d6d"/>
<rect x="80" y="97.65" width="8.35" height="8.7" fill="#717171"/>
<rect x="88" y="90" width="8.35" height="8.35" fill="#7b7b7b"/>
<rect x="88" y="97.65" width="8.35" height="8.7" fill="#808080"/>
<rect x="96" y="90" width="8.35" height="8.35" fill="#8f8f8f"/>
<rect x="96" y="97.65" width="8.35" height="8.7" fill="#959595"/>
<rect x="104" y="90" width="8.35" height="8.35" fill="#aaaaaa"/>
<rect x="104" y="97.65" width="8.35" height="8.7" fill="#b2b2b2"/>
<rect x="112" y="90" width="8.35" height="8.35" fill="#c8c8c8"/>
<rect x="112" y="97.65" width="8.35" height="8.7" fill="#ff1493"/>
<rect x="120" y="90" width="8.35" height="8.35" fill="#e3e3e3"/>
<rect x="120" y="97.65" width="8.35" height="8.7" fill="#eeeeee"/>
<rect x="128" y="90" width="8.35" height="8.35" fill="#f1f1f1"/>
<rect x="128" y="97.65" width="8.35" height="8.7" fill="#fefefe"/>
<rect x="136" y="90" width="8.35" height="8.35" fill="#f0f0f0"/>
<rect x="136" y="97.65" width="8.35" height="8.7" fill="#fcfcfc"/>
<rect x="144" y="90" width="8.35" height="8.35" fill="#e1e1e1"/>
<rect x="144" y="97.65" width="8.35" height="8.7" fill="#ececec"/>
<rect x="152" y="90" width="8.35" height="8.35" fill="#c9c9c9"/>
<rect x="152" y="97.65" width="8.35" height="8.7" fill="#d2d2d2"/>
<rect x="160" y="90" width="8.35" height="8.35" fill="#b1b1b1"/>
<rect x="160" y="97.65" width="8.35" height="8.7" fill="#b8b8b8"/>
<rect x="168" y="90" width="8.35" height="8.35" fill="#9f9f9f"/>
<rect x="168" y="97.65" width="8.35" height="8.7" fill="#a4a4a4"/>
<rect x="176" y="90" width="8.35" height="8.35" fill="#939393"/>
<rect x="176" y="97.65" width="8.35" height="8.7" fill="#989898"/>
<rect x="184" y="90" width="8.35" height="8.35" fill="#8e8e8e"/>
<rect x="184" y="97.65" width="8.35" height="8.7" fill="#929292"/>
<rect x="192" y="90" width="8.35" height="8.35" fill="#8d8d8d"/>
<rect x="192" y="97.65" width="8.35" height="8.7" fill="#919191"/>
<rect x="200" y="90" width="8.35" height="8.35" fill="#8e8e8e"/>
<rect x="200" y="97.65" width="8.35" height="8.7" fill="#929292"/>
<rect x="16" y="106" width="8.35" height="8.35" fill="#555555"/>
<rect x="16" y="113.65" width="8.35" height="8.7" fill="#585858"/>
<rect x="24" y="106" width="8.35" height="8.35" fill="#575757"/>
<rect x="24" y="113.65" width="8.35" height="8.7" fill="#5b5b5b"/>
<rect x="32" y="106" width="8.35" height="8.35" fill="#5a5a5a"/>
<rect x="32" y="113.65" width="8.35" height="8.7" fill="#5e5e5e"/>
<rect x="40" y="106" width="8.35" height="8.35" fill="#5d5d5d"/>
<rect x="40" y="113.65" width="8.35" height="8.7" fill="#606060"/>
<rect x="48" y="106" width="8.35" height="8.35" fill="#606060"/>
<rect x="48" y="113.65" width="8.35" height="8.7" fill="#636363"/>
<rect x="56" y="106" width="8.35" height="8.35" fill="#636363"/>
<rect x="56" y="113.65" width="8.35" height="8.7" fill="#666666"/>
<rect x="64" y="106" width="8.35" height="8.35" fill="#666666"/>
<rect x="64" y="113.65" width="8.35" height="8.7" fill="#696969"/>
<rect x="72" y="106" width="8.35" height="8.35" fill="#6a6a6a"/>
<rect x="72" y="113.65" width="8.35" height="8.7" fill="#6c6c6c"/>
<rect x="80" y="106" width="8.35" height="8.35" fill="#717171"/>
<rect x="80" y="113.65" width="8.35" height="8.7" fill="#707070"/>
<rect x="88" y="106" width="8.35" height="8.35" fill="#7b7b7b"/>
<rect x="88" y="113.65" width="8.35" height="8.7" fill="#757575"/>
<rect x="96" y="106" width="8.35" height="8.35" fill="#898989"/>
<rect x="96" y="113.65" width="8.35" height="8.7" fill="#7c7c7c"/>
<rect x="104" y="106" width="8.35" height="8.35" fill="#9b9b9b"/>
<rect x="104" y="113.65" width="8.35" height="8.7" fill="#848484"/>
<rect x="112" y="106" width="8.35" height="8.35" fill="#b0b0b0"/>
<rect x="112" y="113.65" width="8.35" height="8.7" fill="#8d8d8d"/>
<rect x="120" y="106" width="8.35" height="8.35" fill="#c1c1c1"/>
<rect x="120" y="113.65" width="8.35" height="8.7" fill="#959595"/>
<rect x="128" y="106" width="8.35" height="8.35" fill="#cccccc"/>
<rect x="128" y="113.65" width="8.35" height="8.7" fill="#9a9a9a"/>
<rect x="136" y="106" width="8.35" height="8.35" fill="#cccccc"/>
<rect x="136" y="113.65" width="8.35" height="8.7" fill="#9c9c9c"/>
<rect x="144" y="106" width="8.35" height="8.35" fill="#c3c3c3"/>
<rect x="144" y="113.65" width="8.35" height="8.7" fill="#9b9b9b"/>
<rect x="152" y="106" width="8.35" height="8.35" fill="#b5b5b5"/>
<rect x="152" y="113.65" width="8.35" height="8.7" fill="#989898"/>
<rect x="160" y="106" width="8.35" height="8.35" fill="#a7a7a7"/>
<rect x="160" y="113.65" width="8.35" height="8.7" fill="#959595"/>
<rect x="168" y="106" width="8.35" height="8.35" fill="#9c9c9c"/>
<rect x="168" y="113.65" width="8.35" height="8.7" fill="#939393"/>
<rect x="176" y="106" width="8.35" height="8.35" fill="#959595"/>
<rect x="176" y="113.65" width="8.35" height="8.7" fill="#939393"/>
<rect x="184" y="106" width="8.35" height="8.35" fill="#939393"/>
<rect x="184" y="113.65" width="8.35" height="8.7" fill="#949494"/>
<rect x="192" y="106" width="8.35" height="8.35" fill="#939393"/>
<rect x="192" y="113.65" width="8.35" height="8.7" fill="#969696"/>
<rect x="200" y="106" width="8.35" height="8.35" fill="#959595"/>
<rect x="200" y="113.65" width="8.35" height="8.7" fill="#989898"/>
<rect x="16" y="122" width="8.35" height="8.35" fill="#5c5c5c"/>
<rect x="16" y="129.65" width="8.35" height="8.7" fill="#5f5f5f"/>
<rect x="24" y="122" width="8.35" height="8.35" fill="#5e5e5e"/>
<rect x="24" y="129.65" width="8.35" height="8.7" fill="#626262"/>
<rect x="32" y="122" width="8.35" height="8.35" fill="#616161"/>
<rect x="32" y="129.65" width="8.35" height="8.7" fill="#656565"/>
<rect x="40" y="122" width="8.35" height="8.35" fill="#646464"/>
<rect x="40" y="129.65" width="8.35" height="8.7" fill="#676767"/>
<rect x="48" y="122" width="8.35" height="8.35" fill="#676767"/>
<rect x="48" y="129.65" width="8.35" height="8.7" fill="#6a6a6a"/>
<rect x="56" y="122" width="8.35" height="8.35" fill="#696969"/>
<rect x="56" y="129.65" width="8.35" height="8.7" fill="#6d6d6d"/>
<rect x="64" y="122" width="8.35" height="8.35" fill="#6c6c6c"/>
<rect x="64" y="129.65" width="8.35" height="8.7" fill="#707070"/>
<rect x="72" y="122" width="8.35" height="8.35" fill="#6f6f6f"/>
<rect x="72" y="129.65" width="8.35" height="8.7" fill="#727272"/>
<rect x="80" y="122" width="8.35" height="8.35" fill="#727272"/>
<rect x="80" y="129.65" width="8.35" height="8.7" fill="#757575"/>
<rect x="88" y="122" width="8.35" height="8.35" fill="#757575"/>
<rect x="88" y="129.65" width="8.35" height="8.7" fill="#787878"/>
<rect x="96" y="122" width="8.35" height="8.35" fill="#797979"/>
<rect x="96" y="129.65" width="8.35" height="8.7" fill="#7b7b7b"/>
<rect x="104" y="122" width="8.35" height="8.35" fill="#7d7d7d"/>
<rect x="104" y="129.65" width="8.35" height="8.7" fill="#7e7e7e"/>
<rect x="112" y="122" width="8.35" height="8.35" fill="#818181"/>
<rect x="112" y="129.65" width="8.35" height="8.7" fill="#818181"/>
<rect x="120" y="122" width="8.35" height="8.35" fill="#848484"/>
<rect x="120" y="129.65" width="8.35" height="8.7" fill="#848484"/>
<rect x="128" y="122" width="8.35" height="8.35" fill="#878787"/>
<rect x="128" y="129.65" width="8.35" height="8.7" fill="#868686"/>
<rect x="136" y="122" width="8.35" height="8.35" fill="#8a8a8a"/>
<rect x="136" y="129.65" width="8.35" height="8.7" fill="#898989"/>
<rect x="144" y="122" width="8.35" height="8.35" fill="#8c8c8c"/>
<rect x="144" y="129.65" width="8.35" height="8.7" fill="#8c8c8c"/>
<rect x="152" y="122" width="8.35" height="8.35" fill="#8e8e8e"/>
<rect x="152" y="129.65" width="8.35" height="8.7" fill="#8e8e8e"/>
<rect x="160" y="122" width="8.35" height="8.35" fill="#909090"/>
<rect x="160" y="129.65" width="8.35" height="8.7" fill="#919191"/>
<rect x="168" y="122" width="8.35" height="8.35" fill="#ff1493"/>
<rect x="168" y="129.65" width="8.35" height="8.7" fill="#949494"/>
<rect x="176" y="122" width="8.35" height="8.35" fill="#949494"/>
<rect x="176" y="129.65" width="8.35" height="8.7" fill="#979797"/>
<rect x="184" y="122" width="8.35" height="8.35" fill="#969696"/>
<rect x="184" y="129.65" width="8.35" height="8.7" fill="#999999"/>
<rect x="192" y="122" width="8.35" height="8.35" fill="#999999"/>
<rect x="192" y="129.65" width="8.35" height="8.7" fill="#9c9c9c"/>
<rect x="200" y="122" width="8.35" height="8.35" fill="#9b9b9b"/>
<rect x="200" y="129.65" width="8.35" height="8.7" fill="#9f9f9f"/>
<rect x="16" y="138" width="8.35" height="8.35" fill="#636363"/>
<rect x="16" y="145.65" width="8.35" height="8.7" fill="#666666"/>
<rect x="24" y="138" width="8.35" height="8.35" fill="#656565"/>
<rect x="24" y="145.65" width="8.35" height="8.7" fill="#696969"/>
<rect x="32" y="138" width="8.35" height="8.35" fill="#686868"/>
<rect x="32" y="145.65" width="8.35" height="8.7" fill="#6c6c6c"/>
<rect x="40" y="138" width="8.35" height="8.35" fill="#6b6b6b"/>
<rect x="40" y="145.65" width="8.35" height="8.7" fill="#6e6e6e"/>
<rect x="48" y="138" width="8.35" height="8.35" fill="#6e6e6e"/>
<rect x="48" y="145.65" width="8.35" height="8.7" fill="#717171"/>
<rect x="56" y="138" width="8.35" height="8.35" fill="#707070"/>
<rect x="56" y="145.65" width="8.35" height="8.7" fill="#747474"/>
<rect x="64" y="138" width="8.35" height="8.35" fill="#737373"/>
<rect x="64" y="145.65" width="8.35" height="8.7" fill="#777777"/>
<rect x="72" y="138" width="8.35" height="8.35" fill="#ff1493"/>
<rect x="72" y="145.65" width="8.35" height="8.7" fill="#797979"/>
<rect x="80" y="138" width="8.35" height="8.35" fill="#797979"/>
<rect x="80" y="145.65" width="8.35" height="8.7" fill="#7c7c7c"/>
<rect x="88" y="138" width="8.35" height="8.35" fill="#7b7b7b"/>
<rect x="88" y="145.65" width="8.35" height="8.7" fill="#7f7f7f"/>
<rect x="96" y="138" width="8.35" height="8.35" fill="#7e7e7e"/>
<rect x="96" y="145.65" width="8.35" height="8.7" fill="#828282"/>
<rect x="104" y="138" width="8.35" height="8.35" fill="#818181"/>
<rect x="104" y="145.65" width="8.35" height="8.7" fill="#848484"/>
<rect x="112" y="138" width="8.35" height="8.35" fill="#848484"/>
<rect x="112" y="145.65" width="8.35" height="8.7" fill="#878787"/>
<rect x="120" y="138" width="8.35" height="8.35" fill="#878787"/>
<rect x="120" y="145.65" width="8.35" height="8.7" fill="#8a8a8a"/>
<rect x="128" y="138" width="8.35" height="8.35" fill="#898989"/>
<rect x="128" y="145.65" width="8.35" height="8.7" fill="#8d8d8d"/>
<rect x="136" y="138" width="8.35" height="8.35" fill="#8c8c8c"/>
<rect x="136" y="145.65" width="8.35" height="8.7" fill="#909090"/>
<rect x="144" y="138" width="8.35" height="8.35" fill="#8f8f8f"/>
<rect x="144" y="145.65" width="8.35" height="8.7" fill="#929292"/>
<rect x="152" y="138" width="8.35" height="8.35" fill="#929292"/>
<rect x="152" y="145.65" width="8.35" height="8.7" fill="#959595"/>
<rect x="160" y="138" width="8.35" height="8.35" fill="#949494"/>
<rect x="160" y="145.65" width="8.35" height="8.7" fill="#989898"/>
<rect x="168" y="138" width="8.35" height="8.35" fill="#979797"/>
<rect x="168" y="145.65" width="8.35" height="8.7" fill="#9b9b9b"/>
<rect x="176" y="138" width="8.35" height="8.35" fill="#9a9a9a"/>
<rect x="176" y="145.65" width="8.35" height="8.7" fill="#9d9d9d"/>
<rect x="184" y="138" width="8.35" height="8.35" fill="#9d9d9d"/>
<rect x="184" y="145.65" width="8.35" height="8.7" fill="#a0a0a0"/>
<rect x="192" y="138" width="8.35" height="8.35" fill="#a0a0a0"/>
<rect x="192" y="145.65" width="8.35" height="8.7" fill="#a3a3a3"/>
<rect x="200" y="138" width="8.35" height="8.35" fill="#a2a2a2"/>
<rect x="200" y="145.65" width="8.35" height="8.7" fill="#a6a6a6"/>
<rect x="32" y="154" width="8.35" height="16.35" fill="#000000"/>
<rect x="40" y="154" width="8.35" height="16.35" fill="#0d0d0d"/>
<rect x="48" y="154" width="8.35" height="16.35" fill="#1b1b1b"/>
<rect x="56" y="154" width="8.35" height="16.35" fill="#282828"/>
<rect x="64" y="154" width="8.35" height="16.35" fill="#363636"/>
<rect x="72" y="154" width="8.35" height="16.35" fill="#434343"/>
<rect x="80" y="154" width="8.35" height="16.35" fill="#515151"/>
<rect x="88" y="154" width="8.35" height="16.35" fill="#5e5e5e"/>
<rect x="96" y="154" width="8.35" height="16.35" fill="#6b6b6b"/>
<rect x="104" y="154" width="8.35" height="16.35" fill="#797979"/>
<rect x="112" y="154" width="8.35" height="16.35" fill="#868686"/>
<rect x="120" y="154" width="8.35" height="16.35" fill="#949494"/>
<rect x="128" y="154" width="8.35" height="16.35" fill="#a1a1a1"/>
<rect x="136" y="154" width="8.35" height="16.35" fill="#aeaeae"/>
<rect x="144" y="154" width="8.35" height="16.35" fill="#bcbcbc"/>
<rect x="152" y="154" width="8.35" height="16.35" fill="#c9c9c9"/>
<rect x="160" y="154" width="8.35" height="16.35" fill="#d7d7d7"/>
<rect x="168" y="154" width="8.35" height="16.35" fill="#e4e4e4"/>
<rect x="176" y="154" width="8.35" height="16.35" fill="#f2f2f2"/>
<rect x="184" y="154" width="8.35" height="16.35" fill="#ffffff"/>
</g>
<text x="16" y="54" font-family="ui-monospace, SFMono-Regular, Menlo, Consolas, monospace" font-size="13" fill="#e5e7eb">NaNs</text>
<text x="56" y="54" font-family="ui-monospace, SFMono-Regular, Menlo, Consolas, monospace" font-size="13" fill="#e5e7eb">at</text>
<text x="80" y="54" font-family="ui-monospace, SFMono-Regular, Menlo, Consolas, monospace" font-size="13" fill="#e5e7eb">(x,y):</text>
<text x="136" y="54" font-family="ui-monospace, SFMono-Regular, Menlo, Consolas, monospace" font-size="13" fill="#e5e7eb">(4,2),</text>
<text x="192" y="54" font-family="ui-monospace, SFMono-Regular, Menlo, Consolas, monospace" font-size="13" fill="#e5e7eb">(12,5),</text>
<text x="256" y="54" font-family="ui-monospace, SFMono-Regular, Menlo, Consolas, monospace" font-size="13" fill="#e5e7eb">(19,8),</text>
<text x="320" y="54" font-family="ui-monospace, SFMono-Regular, Menlo, Consolas, monospace" font-size="13" fill="#e5e7eb">(7,10):</text>
<text x="384" y="54" font-family="ui-monospace, SFMono-Regular, Menlo, Consolas, monospace" font-size="13" fill="#e5e7eb">data=12x24</text>
<text x="472" y="54" font-family="ui-monospace, SFMono-Regular, Menlo, Consolas, monospace" font-size="13" fill="#e5e7eb">cmap=gray</text>
<text x="16" y="166" font-family="ui-monospace, SFMono-Regular, Menlo, Consolas, monospace" font-size="13" fill="#e5e7eb">0</text>
<text x="200" y="166" font-family="ui-monospace, SFMono-Regular, Menlo, Consolas, monospace" font-size="13" fill="#e5e7eb">1</text>
</g>
</svg>
